<svg width="408" height="124" viewBox="0 0 408 124" fill="none" xmlns="http://www.w3.org/2000/svg">
<path fill-rule="evenodd" clip-rule="evenodd" d="M109.173 8.7408C110.274 9.09103 112.225 10.1167 115.277 11.7178C116.828 12.5433 119.179 13.7691 119.73 13.9442C120.155 14.0943 120.505 14.3195 120.806 14.5946C120.906 14.5946 121.014 14.5946 121.131 14.5946C121.431 14.5946 121.731 14.6447 122.031 14.7447C122.707 14.9699 123.732 15.3201 124.658 15.6203L125.909 16.0456C126.759 16.3208 127.435 16.9962 127.71 17.8468C127.985 18.6973 127.86 19.648 127.335 20.3734C124.858 23.8757 121.456 28.1035 118.279 31.7059C116.753 33.457 115.352 34.933 114.251 35.9587C112.625 37.5097 111.499 38.3602 110.124 38.3602C109.707 38.3602 109.315 38.2852 108.948 38.1351C108.172 37.7849 107.472 37.2345 106.946 36.534C104.995 36.3589 102.669 35.2582 101.793 33.357C101.318 32.2813 101.468 31.7309 102.318 28.7539C103.494 24.7263 105.896 16.3208 105.496 11.6927C105.395 10.7421 105.796 9.81651 106.546 9.24113C107.047 8.81585 107.672 8.61572 108.322 8.61572C108.606 8.61572 108.889 8.65742 109.173 8.7408ZM104.395 32.1812C104.745 32.9317 106.196 33.7072 107.497 33.7072C107.897 33.7072 108.272 33.6321 108.598 33.457C108.823 34.4327 109.348 35.2082 110.048 35.5084C110.065 35.5251 110.09 35.5334 110.124 35.5334C111.474 35.5334 119.905 25.9271 125.008 18.7224C123.983 18.3721 122.156 17.7717 121.131 17.4215C118.904 21.199 117.653 23.4254 113.251 27.5782C116.503 23.1753 117.203 20.2984 118.829 16.646C117.228 16.0956 110.099 12.018 108.322 11.4426C108.898 18.4472 104.195 31.7309 104.395 32.1812Z" fill="#455218"/>
<path d="M121.131 17.4216C118.904 21.199 117.653 23.4255 113.251 27.5782C116.503 23.1753 117.203 20.2984 118.829 16.646C117.228 16.0957 110.098 12.018 108.322 11.4426C108.898 18.4472 104.195 31.7309 104.395 32.1812C104.845 33.1819 107.222 34.1825 108.597 33.4571C108.823 34.4327 109.348 35.2082 110.048 35.5084C111.099 35.9587 119.78 26.1022 125.008 18.7224C123.983 18.3722 122.156 17.7718 121.131 17.4216Z" fill="#99C12A"/>
<path d="M121.131 17.4218C118.904 21.1993 117.653 23.4257 113.251 27.5785C116.503 23.1756 117.203 20.2987 118.829 16.6463C118.529 16.5462 118.029 16.3211 117.403 15.9958C117.287 16.1626 117.17 16.3211 117.053 16.4712C116.253 19.8234 115.602 23.0004 111.65 24.6765C109.898 25.427 108.022 25.6522 106.171 25.4771C105.22 29.1545 104.295 31.9813 104.395 32.1815C104.845 33.1821 107.222 34.1828 108.598 33.4573C108.823 34.433 109.348 35.2085 110.048 35.5087C111.099 35.959 119.78 26.1025 125.008 18.7226C123.983 18.3724 122.156 17.772 121.131 17.4218Z" fill="#7C943A"/>
<path d="M101.868 61.3005C100.492 64.0023 98.5659 66.2788 96.5646 69.1306C94.7384 71.7073 92.8872 74.9595 90.6857 77.5862C86.6831 82.3143 82.8306 86.5171 79.0281 89.9693C77.8523 91.045 72.0485 95.2228 71.7733 90.2445C71.6733 88.4183 72.724 86.6421 73.3744 85.1912C74.5001 82.7396 75.801 80.338 76.9017 77.7113C77.9774 75.1346 78.828 72.3828 79.8286 69.706C80.9293 66.8792 82.4803 64.3025 83.6561 61.6257C85.8325 56.6975 87.9589 52.1195 89.8102 46.9661C90.7608 44.4144 92.4869 42.3631 93.6377 39.7864C94.6383 37.5099 94.8885 34.8081 96.5146 32.8318C99.4415 29.3045 105.946 28.604 109.948 30.7555C112.775 32.2815 114.051 35.1583 114.426 38.2354C114.777 41.2123 113.326 43.1136 111.65 45.3901C109.598 48.1669 108.422 51.7692 106.596 54.6712C105.02 57.2228 103.019 58.999 101.868 61.3005Z" fill="#E36B00"/>
<path fill-rule="evenodd" clip-rule="evenodd" d="M111.299 28.2539C114.651 30.0551 116.703 33.4073 117.253 37.9102C117.728 41.9129 115.777 44.5646 114.051 46.9161L113.926 47.0662C112.925 48.4421 112.15 50.0932 111.299 51.8444C110.599 53.2953 109.873 54.7713 108.998 56.1722C108.197 57.4731 107.322 58.5738 106.521 59.5494C105.646 60.6251 104.895 61.5758 104.395 62.5764C103.294 64.7528 101.918 66.6041 100.467 68.5804C99.9418 69.2808 99.4165 70.0063 98.8911 70.7568C98.641 71.107 98.3658 71.4823 98.1156 71.8825C98.1156 71.8825 98.1156 71.8909 98.1156 71.9076C97.7654 72.4079 97.3901 72.9582 97.0399 73.4836C95.8391 75.3598 94.4382 77.5112 92.8372 79.3875C90.5857 82.0892 88.5093 84.4158 86.508 86.5672L86.2578 86.8173C86.0911 86.9841 85.9326 87.1509 85.7825 87.3177C84.1314 89.0438 82.5054 90.6449 80.9544 92.0708C80.7792 92.1959 77.1268 95.473 73.7246 95.473C70.3974 95.473 69.0716 92.7462 68.9465 90.4197C68.8214 88.1182 69.797 86.1169 70.4975 84.6659C70.6142 84.4324 70.7143 84.2073 70.7977 83.9905C71.248 83.0399 71.7233 82.0642 72.1736 81.1386C72.8991 79.6877 73.6496 78.1617 74.275 76.6357C74.5501 75.9602 74.8003 75.3348 75.0255 74.7094C75.1005 74.5343 75.1505 74.3592 75.2256 74.184C75.4758 73.5003 75.7176 72.8165 75.9511 72.1327C76.3513 71.007 76.7516 69.8562 77.1769 68.7054C77.8773 66.9043 78.7279 65.2282 79.5284 63.6271C80.0788 62.5514 80.6041 61.5257 81.0544 60.5001C81.4213 59.6829 81.7799 58.8657 82.1301 58.0485C82.8056 56.5725 83.431 55.1716 84.0314 53.7456C84.048 53.729 84.0564 53.7123 84.0564 53.6956C84.2065 53.362 84.3566 53.0202 84.5067 52.6699L84.6568 52.2947C85.6574 49.9681 86.4329 47.9668 87.1584 46.0156C87.7588 44.3395 88.6094 42.9135 89.4349 41.5626C90.0353 40.562 90.5857 39.6364 91.036 38.6357C91.3362 37.9853 91.5613 37.2098 91.8115 36.3842C92.3368 34.6581 92.9122 32.7318 94.3131 31.0307C96.5396 28.3289 100.417 26.7029 104.645 26.7029V29.5297C101.518 29.5297 98.3157 30.6305 96.5146 32.8319C94.8885 34.8082 94.6383 37.51 93.6377 39.7865C92.4869 42.3632 90.7608 44.4145 89.8102 46.9662C89.0096 49.1926 88.1591 51.319 87.2835 53.3954C87.0584 53.8957 86.8582 54.371 86.6331 54.8714C85.6825 57.0978 84.6818 59.3243 83.6561 61.6258C82.4804 64.2775 80.9293 66.8792 79.8286 69.7061C79.1532 71.5323 78.5278 73.3585 77.8773 75.1847C77.8273 75.3598 77.7523 75.5099 77.7022 75.685C77.4521 76.3688 77.1852 77.0443 76.9017 77.7114C75.801 80.3381 74.5001 82.7397 73.3994 85.1913C72.7239 86.6422 71.6733 88.4184 71.7733 90.2446C71.8734 92.0208 72.6739 92.6462 73.7246 92.6462C75.6008 92.6462 78.2776 90.6699 79.0281 89.9694C80.5958 88.5518 82.1635 87.0091 83.7312 85.3414C83.9813 85.0912 84.2232 84.841 84.4567 84.5909C86.508 82.4395 88.5593 80.0879 90.6857 77.5863C92.1367 75.8351 93.4375 73.8588 94.6633 71.9326C95.0386 71.3822 95.3888 70.8318 95.7641 70.3065C96.0309 69.9062 96.2978 69.5143 96.5646 69.1307C98.5659 66.3039 100.517 64.0024 101.868 61.3006C103.019 59.0241 105.02 57.2229 106.596 54.6712C108.422 51.7693 109.598 48.192 111.649 45.3901C113.326 43.1137 114.777 41.2124 114.426 38.2354C114.051 35.1584 112.775 32.2815 109.948 30.7555C108.447 29.955 106.571 29.5297 104.645 29.5297V26.7029C107.097 26.7029 109.398 27.2532 111.299 28.2539Z" fill="#455218"/>
<path d="M112.35 44.4145C112.133 44.7481 111.9 45.0733 111.65 45.3902C111.283 45.9072 110.932 46.4492 110.599 47.0162C109.148 49.4929 108.072 52.3197 106.596 54.6713C105.02 57.2229 103.019 58.9991 101.868 61.3006C101.668 61.6842 101.451 62.0761 101.218 62.4764C100.717 63.352 100.142 64.2025 99.5165 65.0531C98.6159 66.3539 97.5903 67.6548 96.5646 69.1308C96.2978 69.5143 96.0309 69.9063 95.7641 70.3065C95.4138 70.8319 95.0386 71.3822 94.6633 71.9326C93.4375 73.8338 92.1367 75.8352 90.6857 77.5863C88.5677 80.0879 86.4913 82.4228 84.4566 84.5909C84.2232 84.8411 83.9813 85.0912 83.7312 85.3414C82.1635 87.0092 80.5958 88.5518 79.0281 89.9694C77.8523 91.0451 72.0485 95.2229 71.7733 90.2696C71.6733 88.4184 72.724 86.6423 73.3744 85.1913C74.5001 82.7397 75.801 80.3381 76.9017 77.7114C77.1769 77.0359 77.4521 76.3605 77.7022 75.6851C77.7522 75.5183 77.8106 75.3515 77.8773 75.1847C78.5278 73.3836 79.1282 71.5323 79.8286 69.7061C80.9293 66.8793 82.4803 64.2776 83.6561 61.6258C84.6818 59.3243 85.6825 57.0979 86.6331 54.8714C86.8582 54.3961 87.0584 53.8958 87.2835 53.3954C87.984 51.6943 88.6844 49.9932 89.3599 48.217C89.5266 47.8001 89.6851 47.3831 89.8352 46.9662C90.0603 46.3158 90.3605 45.6904 90.6857 45.09C91.6113 43.3388 92.7871 41.7128 93.6377 39.7865C94.6634 37.51 94.8885 34.8082 96.5146 32.8319C99.4165 29.2796 105.946 28.6292 109.948 30.7556C112.775 32.2816 114.051 35.1585 114.426 38.2355C114.727 40.7872 113.701 42.5383 112.35 44.4145Z" fill="#E36B00"/>
<path d="M113.976 36.0093C113.851 36.2845 113.751 36.5596 113.651 36.7598C112.725 38.8361 111.875 40.9625 110.949 43.0389C109.173 46.9665 106.421 50.9941 103.044 53.6959C99.5666 56.4227 94.4132 57.9987 90.1854 56.1725C88.9346 55.6472 87.9089 54.8717 87.0333 53.946C86.9166 54.2629 86.7832 54.5715 86.6331 54.8717C85.6825 57.0981 84.6818 59.3246 83.6561 61.6261C82.4803 64.2778 80.9293 66.8795 79.8286 69.7064C79.1282 71.5326 78.5278 73.3838 77.8773 75.185C77.8106 75.3518 77.7522 75.5185 77.7022 75.6853C77.4521 76.3608 77.1769 77.0362 76.9017 77.7116C75.801 80.3384 74.5001 82.7399 73.3744 85.1916C72.724 86.6425 71.6733 88.4187 71.7733 90.2699C72.0485 95.2231 77.8523 91.0454 79.0281 89.9697C80.5958 88.5521 82.1635 87.0094 83.7312 85.3416C83.9813 85.0915 84.2232 84.8413 84.4566 84.5912C86.4913 82.4231 88.5677 80.0882 90.6857 77.5866C92.1367 75.8354 93.4375 73.8341 94.6633 71.9328C95.0386 71.3825 95.4138 70.8321 95.7641 70.3068C96.0309 69.9065 96.2978 69.5146 96.5646 69.131C97.5903 67.655 98.6159 66.3542 99.5165 65.0533C100.142 64.2028 100.717 63.3522 101.218 62.4766C101.451 62.0764 101.668 61.6845 101.868 61.3009C103.019 58.9994 105.02 57.2232 106.596 54.6715C108.072 52.32 109.148 49.4931 110.599 47.0165C110.932 46.4495 111.283 45.9074 111.65 45.3904C111.9 45.0736 112.133 44.7483 112.35 44.4148C113.701 42.5386 114.727 40.7874 114.426 38.2357C114.326 37.4852 114.176 36.7348 113.976 36.0093Z" fill="#D15E00"/>
<path d="M110.599 47.0164C110.223 46.8413 109.873 46.6662 109.498 46.4411C106.121 44.2896 104.845 41.5378 104.845 41.5378C107.297 42.1883 108.672 42.4134 111.249 43.7893C111.649 44.0061 112.016 44.2146 112.35 44.4147L110.599 47.0164Z" fill="#C74600"/>
<path d="M98.4158 50.6435C98.1156 50.6435 93.9129 50.3683 89.3599 48.2169C89.5266 47.8 89.6851 47.383 89.8352 46.9661C90.0603 46.3156 90.3605 45.6902 90.6857 45.0898C90.7858 45.1232 90.8942 45.1649 91.0109 45.2149C93.6127 46.2156 95.614 48.2169 98.4158 50.6435Z" fill="#C74600"/>
<path d="M101.218 62.4763C100.717 63.3518 100.142 64.2024 99.5165 65.0529C97.0899 63.5019 95.2637 61.6757 93.2624 59.5994C93.2624 59.5994 96.2894 59.5994 101.218 62.4763Z" fill="#C74600"/>
<path d="M79.2282 69.9812C78.878 70.9568 78.4777 71.9325 78.0524 72.8831C81.7799 74.8594 86.6331 77.361 86.6331 77.361C86.6331 77.361 83.431 73.1333 79.2282 69.9812Z" fill="#455218"/>
<path d="M117.929 13.9946C117.929 13.9946 116.853 21.3495 113.25 27.5785C113.25 27.5785 118.829 24.2013 122.807 16.1961L117.929 13.9946Z" fill="#455218"/>
<path fill-rule="evenodd" clip-rule="evenodd" d="M37.0004 65.028C37.5758 65.6033 37.901 66.3538 37.8509 67.1794C37.8509 67.3044 37.876 68.18 38.1761 69.9812C38.2262 70.2981 38.2762 70.64 38.3262 71.0069C38.5014 72.4828 38.7515 74.5092 40.0023 75.5849C41.0781 76.5105 43.5797 78.3867 47.082 80.8133C48.2578 81.6389 48.633 83.2149 47.9576 84.4907C46.2314 87.6928 44.105 90.6197 41.6034 93.1964C41.053 93.7468 40.3025 94.047 39.5771 94.047C38.9266 94.047 38.2512 93.8218 37.7259 93.3465C34.1735 90.2945 32.4974 89.1938 31.822 88.8186C29.9207 87.7679 28.1946 87.2675 26.3934 87.2675C26.1766 87.2675 25.9515 87.2759 25.718 87.2926C24.167 87.3926 20.3645 88.2432 19.0386 88.5434C18.8218 88.5934 18.605 88.6184 18.3882 88.6184C17.6127 88.6184 16.8872 88.3182 16.3368 87.7429C15.6364 87.0174 15.3862 85.9917 15.6614 85.0161L16.4869 82.0391C16.7871 80.9884 17.6627 80.2129 18.7384 80.0128C18.9135 79.9878 19.614 79.8627 20.5646 79.7126C20.2144 79.4791 19.8725 79.254 19.5389 79.0371C18.4132 78.3117 17.9629 76.8857 18.4382 75.6349L19.639 72.4578C19.9642 71.6073 20.6897 70.9568 21.6153 70.7317C21.8321 70.665 22.0572 70.6316 22.2907 70.6316C22.766 70.6316 23.2664 70.7567 23.6916 71.0069L25.693 68.5052C26.2433 67.8298 27.0689 67.4545 27.9194 67.4545C28.0195 67.4545 28.1112 67.4545 28.1946 67.4545C28.3781 67.4712 28.5615 67.5129 28.745 67.5796C28.6949 67.0293 28.82 66.4789 29.0952 66.0036C29.5455 65.178 30.396 64.6527 31.3216 64.5526L34.7739 64.2775C34.874 64.2608 34.9657 64.2524 35.0491 64.2524C35.7746 64.2524 36.475 64.5276 37.0004 65.028ZM31.5718 67.3795C31.5718 67.3795 32.2222 68.6803 32.7976 70.8318C33.323 72.8081 34.1735 75.1846 32.6725 75.1846C32.5391 75.1846 32.3974 75.1679 32.2473 75.1346C30.1459 74.6843 27.9194 70.2814 27.9194 70.2814L25.5929 73.1833C25.5929 73.1833 29.0952 76.7606 28.3697 77.4861C28.3197 77.5362 28.2446 77.5612 28.1446 77.5612C26.9188 77.5612 22.2907 73.4835 22.2907 73.4835L21.0899 76.6606C21.0899 76.6606 29.1953 81.914 27.1689 81.914C27.1522 81.914 27.1356 81.914 27.1189 81.914C27.0021 81.914 26.8854 81.914 26.7687 81.914C24.3671 81.914 19.2137 82.8146 19.2137 82.8146L18.3882 85.7916C18.3882 85.7916 23.4165 84.6158 25.5178 84.4657C25.8014 84.449 26.0932 84.4407 26.3934 84.4407C28.3197 84.4407 30.5461 84.866 33.1979 86.3419C34.874 87.2675 37.5257 89.419 39.5771 91.1951C41.9536 88.7685 43.9049 86.0668 45.4559 83.1398C43.0043 81.4387 39.6271 79.0121 38.1261 77.7363C35.6995 75.6099 35.6495 72.0576 35.3993 70.4565C34.9991 68.13 35.0241 67.1043 35.0241 67.1043L31.5718 67.3795Z" fill="#455218"/>
<path d="M33.198 86.3419C34.8741 87.2675 37.5258 89.4189 39.5772 91.1951C41.9537 88.7685 43.905 86.0667 45.456 83.1398C43.0044 81.4387 39.6272 79.0121 38.1262 77.7362C35.6996 75.6098 35.6496 72.0575 35.3994 70.4564C34.9991 68.1299 35.0242 67.1042 35.0242 67.1042L31.5719 67.3794C31.5719 67.3794 32.2223 68.6803 32.7977 70.8317C33.3731 72.9831 34.3237 75.5848 32.2473 75.1345C30.146 74.6842 27.9195 70.2813 27.9195 70.2813L25.593 73.1832C25.593 73.1832 29.0953 76.7606 28.3698 77.4861C27.6443 78.1865 22.2908 73.4834 22.2908 73.4834L21.09 76.6605C21.09 76.6605 29.3204 82.014 27.119 81.914C24.8925 81.8139 19.2138 82.8146 19.2138 82.8146L18.3882 85.7915C18.3882 85.7915 23.4165 84.6157 25.5179 84.4656C27.6193 84.3155 30.1209 84.6408 33.198 86.3419Z" fill="#7E9E2C"/>
<path fill-rule="evenodd" clip-rule="evenodd" d="M27.5442 53.5205C28.5698 52.8201 29.7706 52.4448 31.0965 52.4448C32.9727 52.4448 34.899 53.2453 36.4 54.6212C39.9523 57.8984 40.5027 63.7022 37.6258 67.5797C35.8246 69.9563 32.8727 71.4073 29.7206 71.4073C29.2036 71.4073 28.6949 71.3656 28.1946 71.2822C27.269 73.3335 25.768 75.0597 23.8918 76.1854C24.192 77.9616 23.9168 79.8878 23.0162 81.5639C21.8905 83.7153 20.3394 85.1663 18.5383 85.8667C18.2881 87.3677 17.6377 88.7687 16.9372 89.5692C15.3362 91.3453 12.4843 91.9708 10.533 91.9708C9.80753 91.9708 9.1571 91.8957 8.55671 91.7456C6.43031 91.1952 4.55408 89.9694 3.10313 88.1933C1.10182 85.7167 0.226242 83.19 0.501422 80.7134C0.676537 78.9872 1.377 77.111 2.57779 75.7101C1.55211 73.3836 1.85231 70.6568 2.97805 68.5554C3.3116 67.9383 3.72854 67.3963 4.22887 66.9293C3.9787 65.0531 4.22887 63.1518 4.92933 61.5508C6.63045 57.5732 10.3579 54.8964 14.1354 54.8964C14.8692 54.8964 15.5947 54.9881 16.3118 55.1716C17.0373 54.221 17.9379 53.4705 18.9635 52.9201C20.1143 52.3197 21.3651 52.0195 22.641 52.0195C24.5922 52.0195 26.2683 52.72 27.5442 53.5205ZM20.2894 55.4218C18.8635 56.1723 17.9879 57.4981 17.5626 58.799C16.4119 58.0485 15.2361 57.7233 14.1354 57.7233C11.2335 57.7233 8.68179 59.9748 7.53104 62.6765C6.83058 64.2776 6.78054 66.379 7.43097 68.2302C6.63045 68.5304 5.92999 69.0807 5.47969 69.9063C4.47903 71.7325 4.30392 74.7094 6.68048 76.4105C4.70418 76.6607 3.52841 79.0373 3.32828 81.0386C3.10313 83.0149 4.05375 84.8411 5.30457 86.4171C6.33025 87.6929 7.68113 88.5935 9.25717 88.9938C9.63242 89.0939 10.0577 89.1439 10.533 89.1439C12.084 89.1439 13.9603 88.6186 14.8108 87.6679C15.5363 86.8424 16.1617 84.5659 15.6364 83.4402C15.7865 83.4568 15.9366 83.4652 16.0867 83.4652C18.0629 83.4652 19.5389 82.0642 20.5146 80.2381C21.4151 78.5369 21.4402 76.2604 20.3144 74.7094C20.2977 74.6761 20.2811 74.6427 20.2644 74.6094C20.9398 74.4843 21.5903 74.2341 22.1907 73.9089C24.4421 72.6581 25.9681 70.2315 26.3184 67.6548C27.344 68.2802 28.5198 68.5554 29.7206 68.5554C31.872 68.5554 34.0484 67.6048 35.3493 65.8786C37.3506 63.1769 36.9503 58.9741 34.4987 56.6976C33.5231 55.822 32.2973 55.2717 31.0965 55.2717C29.8207 55.2717 28.5949 55.8971 27.8444 57.373C27.8444 57.373 25.5429 54.8464 22.641 54.8464C21.8905 54.8464 21.0899 55.0215 20.2894 55.4218Z" fill="#455218"/>
<path d="M27.8444 57.3732C27.8444 57.3732 24.217 53.3705 20.2894 55.4219C18.8635 56.1724 17.9879 57.4983 17.5627 58.7991C13.3849 56.0973 9.13212 58.9492 7.53107 62.6766C6.83061 64.2777 6.78058 66.3791 7.43101 68.2303C6.63048 68.5305 5.93002 69.0809 5.47973 69.9064C4.47907 71.7326 4.30395 74.7095 6.68051 76.4107C4.70422 76.6608 3.52845 79.0374 3.32831 81.0387C3.10317 83.015 4.05379 84.8412 5.30461 86.4172C6.33028 87.6931 7.68117 88.5937 9.25721 88.9939C10.8583 89.4192 13.7101 88.9189 14.8108 87.6681C15.5363 86.8425 16.1617 84.566 15.6364 83.4403C17.8378 83.6904 19.4639 82.2145 20.5146 80.2382C21.4152 78.5371 21.4402 76.2606 20.3145 74.7095C20.2978 74.6762 20.2811 74.6428 20.2644 74.6095C20.9399 74.4844 21.5903 74.2342 22.1907 73.909C24.4422 72.6582 25.9682 70.2316 26.3184 67.6549C29.1953 69.3811 33.323 68.5555 35.3493 65.8788C37.3506 63.177 36.9504 58.9742 34.4988 56.6977C32.5225 54.8965 29.3204 54.4963 27.8444 57.3732Z" fill="#B3C948"/>
<path d="M13.9102 74.1838C15.061 77.3609 14.7358 80.488 12.8846 82.7394C10.9083 85.141 4.75424 84.7908 3.30328 81.6637C3.30328 83.3899 4.17886 85.0159 5.3046 86.4169C6.33027 87.6927 7.68116 88.5933 9.25719 88.9936C10.8582 89.4188 13.7101 88.9185 14.8108 87.6677C15.5363 86.8421 16.1617 84.5657 15.6364 83.4399C17.8378 83.6901 19.4639 82.2141 20.5146 80.2378C21.215 78.9119 21.3902 77.2358 20.8898 75.8349C18.4632 75.8099 16.0867 75.3346 13.9102 74.1838Z" fill="#7C943A"/>
<path d="M20.2644 74.6095C19.3388 74.7596 16.612 75.36 14.2104 74.3843C14.2104 74.3843 16.9872 78.512 21.0649 77.6365C25.1426 76.7359 25.3177 73.7839 25.3177 73.7839C25.3177 73.7839 21.24 74.4594 20.2644 74.6095Z" fill="#455218"/>
<path d="M17.5627 58.7989C17.5627 58.7989 20.3645 60.5 21.19 62.076C21.19 62.076 21.065 57.1228 17.1124 55.1465L17.5627 58.7989Z" fill="#455218"/>
<path d="M4.22889 85.1413C4.22889 85.1413 2.67787 81.1637 4.97938 78.9873C6.20519 77.8115 7.93132 77.4363 9.68247 77.9366C9.68247 77.9366 8.38161 75.5851 5.93001 75.5601C2.57781 75.5601 1.57715 78.8872 1.57715 78.8872L4.22889 85.1413Z" fill="#455218"/>
<path d="M26.3185 67.6549C26.4185 66.0288 25.9432 63.7773 25.3428 62.1262C25.3428 62.1262 29.6957 63.4521 29.4956 69.7062L26.3185 67.6549Z" fill="#455218"/>
<path d="M7.43092 68.2299C7.43092 68.2299 8.55666 70.9067 10.2828 71.332C10.2828 71.332 5.07938 72.6328 4.02869 68.1299L7.43092 68.2299Z" fill="#455218"/>
<path d="M129.386 59.7245C132.788 73.7087 129.486 86.6172 110.248 92.7212C90.7106 98.9002 80.9292 90.5447 75.5507 77.3361C75.2755 76.6856 75.4506 75.1096 76.026 74.9345C90.5856 70.2314 114.126 62.6264 127.46 58.3486C128.035 58.1485 129.236 59.1241 129.386 59.7245Z" fill="#E74641"/>
<path fill-rule="evenodd" clip-rule="evenodd" d="M132.138 59.0488C136.516 77.1106 129.261 89.6689 111.099 95.4227C106.471 96.8986 102.143 97.6241 98.2407 97.6241C91.9866 97.6241 86.6081 95.7479 82.1802 92.0454C78.3777 88.8684 75.3507 84.3904 72.9241 78.4115C72.4238 77.2107 72.4738 75.4095 73.0742 74.1587C73.5245 73.2081 74.2499 72.5326 75.1505 72.2324L126.584 55.6466C126.918 55.5298 127.26 55.4714 127.61 55.4714C129.486 55.4714 131.688 57.2226 132.138 59.0488ZM127.46 58.3483C114.126 62.6261 90.5857 70.2311 76.0261 74.9342C75.4507 75.1093 75.2756 76.6854 75.5508 77.3358C79.6785 87.4924 86.4329 94.7972 98.2407 94.7972C101.768 94.7972 105.746 94.1468 110.249 92.7209C129.486 86.6169 132.788 73.7084 129.386 59.7242C129.236 59.1739 128.21 58.3233 127.61 58.3233C127.56 58.3233 127.51 58.3316 127.46 58.3483Z" fill="#455218"/>
<path d="M122.056 64.1274C124.758 73.6337 121.456 83.0649 108.472 87.1926C95.1887 91.3953 87.3335 85.7166 83.9563 76.4355L122.056 64.1274Z" fill="#E7807D"/>
<path d="M105.595 74.1336C106.996 76.4851 109.198 80.1625 109.298 82.6892C109.423 85.2159 106.646 85.491 105.846 83.8399C104.695 81.4384 104.144 76.4351 103.994 74.6839C103.869 72.9578 104.37 72.0822 105.595 74.1336Z" fill="#E74641"/>
<path d="M100.692 76.0852C101.017 78.5618 101.593 82.3893 100.667 84.5157C99.7416 86.6421 97.0898 85.8166 97.0398 84.1405C96.9397 81.7139 98.4407 77.411 99.0161 75.9351C99.5915 74.4591 100.392 73.9338 100.692 76.0852Z" fill="#E74641"/>
<path d="M96.3894 76.9605C95.2887 78.6366 93.5876 81.2383 91.8614 81.9137C90.1603 82.6142 88.9095 80.5378 89.76 79.5121C91.0109 78.0362 94.263 76.4101 95.4138 75.8848C96.5645 75.3594 97.365 75.5345 96.3894 76.9605Z" fill="#E74641"/>
<path d="M108.272 73.6337C109.448 75.8351 111.249 79.2874 113.226 80.4632C115.202 81.6389 116.878 79.4375 115.952 78.0366C114.626 76.0353 110.874 73.4085 109.548 72.533C108.222 71.6824 107.272 71.7324 108.272 73.6337Z" fill="#E74641"/>
<path d="M112.275 71.8574C114.151 72.5579 117.053 73.6586 118.854 73.2083C120.63 72.7831 120.43 70.3565 119.129 70.0313C117.278 69.5559 113.676 70.1313 112.425 70.3815C111.199 70.6316 110.649 71.232 112.275 71.8574Z" fill="#E74641"/>
<g style="mix-blend-mode:multiply">
<path d="M115.102 84.1154C111.699 84.1904 108.372 83.59 105.37 81.9389C96.3894 76.9607 96.6645 69.9811 95.9641 68.5051C88.7093 70.8317 81.6797 73.1082 76.026 74.9343C75.4506 75.1095 75.2755 76.6855 75.5507 77.3359C80.9292 90.5446 90.7106 98.9001 110.248 92.721C122.231 88.9185 128.035 82.4643 129.886 74.7592C127.11 79.5624 122.056 83.9403 115.102 84.1154Z" fill="#C9BDBD"/>
</g>
<path d="M53.3361 30.2549C53.5863 32.0561 49.1334 33.2069 47.3322 33.0818C45.8062 32.9567 46.5066 30.5301 46.4316 28.9791C46.3315 26.9027 44.3552 22.0746 43.3796 19.2477C42.6041 16.9962 45.3309 16.8712 45.9813 17.3215H46.0063C47.057 18.122 48.1577 22.1746 49.1334 25.0015C50.084 27.8283 53.086 28.4788 53.3361 30.2549Z" fill="#455218"/>
<path fill-rule="evenodd" clip-rule="evenodd" d="M53.3862 28.9042C56.5633 28.9042 59.19 30.1551 61.1913 31.8062C61.8167 32.3065 62.3671 32.8318 62.8674 33.3822C66.6949 37.5599 67.6706 39.0109 77.8773 48.5171C87.5836 57.5731 99.2663 72.5829 92.9371 86.5421C87.9339 97.5493 78.2025 102.027 74.1748 103.003C72.1985 103.878 68.396 104.929 63.743 104.929C59.4151 104.929 54.3618 104.029 49.2585 101.302C35.7496 94.022 36.5251 75.1096 38.1762 61.9259C38.3513 60.5 38.5014 59.1991 38.6515 57.9983C39.7522 49.1425 40.0524 45.9404 40.4027 40.9622C40.5528 38.9859 42.0788 32.0063 48.9333 29.6798C50.5343 29.1544 52.0103 28.9042 53.3862 28.9042ZM53.3862 26.0774C51.635 26.0774 49.8339 26.3776 48.0327 26.978C40.3526 29.5797 37.826 37.1347 37.5758 40.762C37.2006 45.7903 36.9004 48.9424 35.8497 57.6481L35.4995 60.3999L35.3494 61.5757C34.6239 67.4796 33.7983 76.2353 35.2243 84.3156C36.8754 93.5967 41.1532 100.151 47.9076 103.803C52.8108 106.43 58.1393 107.756 63.743 107.756C69.5468 107.756 73.6495 106.305 75.0754 105.705C80.3539 104.354 90.3354 99.1003 95.5138 87.7178C98.7159 80.6632 98.1906 72.8081 93.9628 64.4025C90.1853 56.9477 84.1814 50.5184 79.8035 46.4408C71.373 38.5856 69.2966 36.2841 66.6949 33.3572C66.1446 32.7818 65.5942 32.1564 64.9688 31.4559C64.3184 30.7555 63.6679 30.1551 62.9925 29.6047C60.1656 27.3032 56.8385 26.0774 53.3862 26.0774Z" fill="#455218"/>
<path d="M92.9371 86.5424C87.9338 97.5496 78.2024 102.028 74.1748 103.003C70.3723 104.679 59.9154 107.031 49.2584 101.302C35.7496 94.0223 36.5251 75.1099 38.1761 61.9262C38.3513 60.5003 38.5014 59.1994 38.6515 57.9986C39.7522 49.1428 40.0524 45.9407 40.4026 40.9625C40.5527 38.9862 42.0787 32.0066 48.9332 29.6801C54.1866 27.9039 58.3144 29.4549 61.1912 31.8065C61.8167 32.3068 62.367 32.8321 62.8673 33.3825C66.6949 37.5602 67.6705 39.0112 77.8772 48.5174C87.5836 57.5734 99.2662 72.5832 92.9371 86.5424Z" fill="#7E9E2C"/>
<path d="M87.3834 85.5913C83.631 94.8224 76.0009 98.4247 72.8239 99.1502C69.8469 100.501 61.5915 102.277 53.0109 97.1989C42.1287 90.7697 42.3789 74.7592 43.4045 63.6019C43.5213 62.4011 43.6214 61.292 43.7047 60.2747C44.4052 52.7948 44.5553 50.118 44.7554 45.8903C44.8305 44.2142 45.8812 38.3353 51.2847 36.5091C55.4374 35.1082 58.7396 36.5091 61.0661 38.5604C61.5665 38.9857 62.0168 39.436 62.417 39.9113C65.5441 43.5387 66.3446 44.7895 74.6501 53.07C82.5302 60.9251 92.1115 73.8836 87.3834 85.5913Z" fill="#ECC54A"/>
<path d="M77.3519 70.4316C80.2288 78.0115 77.2018 86.1419 70.5974 88.6435C64.0181 91.1451 56.3631 87.0424 53.4862 79.4625C50.084 70.4566 51.635 58.4237 58.2143 55.922C60.5909 55.0214 63.2676 55.4717 65.8943 56.8476C70.6224 59.2742 75.1754 64.6528 77.3519 70.4316Z" fill="#683C1D"/>
<path d="M55.9879 59.5743C54.0366 62.7013 53.4112 70.5565 55.5626 76.6855C57.714 82.8395 62.5422 83.565 66.5448 82.5393C70.5224 81.5387 72.924 73.6835 70.5224 68.1549C66.6949 59.4242 59.9655 53.145 55.9879 59.5743Z" fill="#814C2E"/>
<path opacity="0.6" d="M58.1392 62.8264C55.6876 65.253 55.7377 72.0325 57.9391 74.6092C60.0905 77.1358 60.6159 73.6586 60.9911 71.5572C61.2413 70.0562 62.0668 59.2991 58.2393 62.7264C58.2059 62.7597 58.1726 62.7931 58.1392 62.8264Z" fill="white"/>
<g style="mix-blend-mode:multiply">
<path d="M71.7732 92.6461C52.9609 95.9983 38.9016 80.213 37.3006 75.735C37.4757 86.0168 40.0524 96.3486 49.2584 101.302C59.9154 107.031 70.3723 104.679 74.1748 103.003C78.2024 102.027 87.9338 97.5493 92.9371 86.5421C95.1886 81.5889 95.1636 76.5355 93.7627 71.6323C89.3598 86.7673 86.633 89.9694 71.7732 92.6461Z" fill="#D9CCCC"/>
</g>
<path d="M55.4625 119.739H60.5158C61.6166 121.24 62.7173 123.291 64.0181 123.291C65.319 123.291 66.1445 122.266 67.7456 120.74C67.7456 120.74 72.4987 122.341 74.3249 121.44L73.5994 113.685L55.4625 112.009V119.739Z" fill="#455218"/>
<path fill-rule="evenodd" clip-rule="evenodd" d="M105.746 86.9926C123.582 90.2198 127.885 93.4969 128.56 94.1473C129.186 94.6977 129.511 95.5232 129.461 96.3488C129.436 97.1993 129.011 97.9749 128.335 98.4752C127.685 98.9755 111.9 110.883 100.317 117.813C95.3137 120.815 89.0345 122.316 81.6047 122.316C75.1754 122.316 70.2472 121.165 70.0471 121.115C69.1215 120.89 68.371 120.214 68.0458 119.339C67.8706 118.839 67.8206 118.313 67.9207 117.838C66.895 118.989 66.3196 119.739 66.2946 119.764C65.7442 120.49 64.8937 120.89 64.0181 120.89C63.7346 120.89 63.4427 120.84 63.1425 120.74C62.0418 120.39 61.2663 119.389 61.1913 118.238C61.1412 118.121 61.0745 117.996 60.9911 117.863C60.9745 117.896 60.9578 117.93 60.9411 117.963C60.5659 118.713 59.8904 119.264 59.0649 119.464C58.8397 119.514 56.7884 120.014 53.8865 120.014C50.159 120.014 44.8055 119.189 40.4777 115.286C33.8483 109.307 25.2927 98.0499 24.9175 97.5746C24.1419 96.5239 24.167 95.073 25.0175 94.0473C25.4428 93.5219 29.5705 88.994 41.7535 88.2435C42.1871 88.2268 42.6374 88.2184 43.1044 88.2184C48.8582 88.2184 54.712 90.3949 59.1649 94.1974C61.4414 96.1236 63.2676 98.4251 64.5935 100.977C66.7699 97.2494 69.972 94.1223 74.0747 91.6707C80.1037 88.1184 88.0339 86.1421 96.4144 86.1421C99.5915 86.1421 102.719 86.4423 105.746 86.9926ZM64.2433 110.758C63.9431 98.6003 53.136 91.0453 43.1044 91.0453C42.7041 91.0453 42.3039 91.062 41.9036 91.0953C30.6212 91.7708 27.1939 95.8735 27.1939 95.8735C27.1939 95.8735 35.8746 107.306 42.3789 113.185C46.0063 116.437 50.5593 117.162 53.8865 117.162C56.5382 117.162 58.3894 116.712 58.3894 116.712C52.9859 104.579 43.1544 99.9011 43.1544 99.9011C55.9128 100.902 63.7429 116.787 64.0431 117.613C64.0431 117.763 64.0181 117.888 64.0181 118.038C64.0181 118.038 78.3025 99.2007 97.0898 99.2007C97.7903 99.2007 98.4824 99.234 99.1662 99.3007C99.1662 99.3007 81.6297 103.328 70.7225 118.338C70.7225 118.338 75.4256 119.489 81.6047 119.489C86.9832 119.489 93.4624 118.613 98.841 115.386C110.449 108.457 126.634 96.2237 126.634 96.2237C126.634 96.2237 123.157 93.0216 105.245 89.7695C102.418 89.2691 99.4164 88.994 96.4144 88.994C81.6297 88.994 66.2196 95.4232 64.2433 110.758Z" fill="#455218"/>
<path d="M41.9036 91.0949C52.2604 90.4695 63.9431 98.1245 64.2433 110.758C66.6199 92.2957 88.4842 86.7421 105.245 89.7691C123.157 93.0212 126.634 96.2233 126.634 96.2233C126.634 96.2233 110.449 108.456 98.841 115.386C87.2584 122.34 69.6468 118.338 69.6468 118.338C80.554 103.328 99.1662 99.3003 99.1662 99.3003C79.3782 97.7993 64.0181 118.563 64.0181 118.563C64.0181 118.413 64.0432 118.813 64.0432 118.663C63.743 117.837 56.9385 102.377 43.1544 99.9007C43.1544 99.9007 53.5112 104.579 58.9148 116.712C58.9148 116.712 48.8832 119.038 42.3789 113.184C35.8747 107.306 27.194 95.8731 27.194 95.8731C27.194 95.8731 30.6212 91.7704 41.9036 91.0949Z" fill="#B3C948"/>
<path d="M108.497 106.43C100.367 111.909 91.4861 116.462 81.3544 115.786C80.8791 115.761 80.5289 115.361 80.654 114.861C82.6302 107.331 88.8593 103.803 95.1885 100.451C89.1095 102.527 77.4268 107.656 69.6467 118.338C69.6467 118.338 87.2583 122.34 98.8409 115.386C110.449 108.456 126.634 96.2233 126.634 96.2233C126.634 96.2233 126.509 96.1232 126.234 95.9231C119.78 98.0745 113.776 102.853 108.497 106.43Z" fill="#7C943A"/>
<path d="M43.5547 100.076C43.3879 100.009 43.2212 99.9424 43.0544 99.8757C46.3065 102.778 49.2334 106.33 52.4606 112.009C52.4606 112.009 49.7338 112.834 45.2809 110.883C40.2525 108.707 39.452 107.806 34.6739 105.054C37.1505 107.956 39.9273 110.958 42.3789 113.184C48.8832 119.038 58.9148 116.712 58.9148 116.712C54.1367 106.005 45.506 101.077 43.5547 100.076Z" fill="#7C943A"/>
<path fill-rule="evenodd" clip-rule="evenodd" d="M76.9266 0.460696C77.3018 0.660827 86.2077 5.81421 87.9839 17.7971C88.9095 23.9261 87.5586 28.2289 86.2577 30.7556C84.8068 33.6074 83.0306 35.0084 82.8555 35.1585C82.3301 35.5337 81.7298 35.7338 81.1294 35.7338C80.604 35.7338 80.1037 35.5837 79.6284 35.3086C71.398 30.2052 66.4948 21.1493 67.4204 12.7688C68.371 4.13811 73.7995 0.660827 74.0247 0.510728C74.475 0.235548 75.0003 0.0854492 75.5257 0.0854492C76.001 0.0854492 76.4763 0.210531 76.9266 0.460696ZM70.2222 13.094C69.4467 20.1736 73.5994 28.2289 81.1294 32.907C81.1294 32.907 86.733 28.6542 85.182 18.2224C83.581 7.46529 75.5257 2.9123 75.5257 2.9123C75.5257 2.9123 71.0477 5.71414 70.2222 13.094Z" fill="#455218"/>
<path d="M81.2738 32.5003C73.4657 27.8413 69.1595 19.8189 69.9637 12.7681C70.8197 5.41834 75.4631 2.62793 75.4631 2.62793C75.4631 2.62793 83.8159 7.16235 85.4761 17.8755C87.0845 28.2649 81.2738 32.5003 81.2738 32.5003Z" fill="#B3C948"/>
<path d="M85.4822 17.9734C84.6699 12.6775 82.2331 8.89114 79.9992 6.44116C80.0754 6.61439 80.1008 6.81237 80.2023 6.96085C81.9538 9.88103 84.6699 18.9138 81.3954 25.9668C80.9638 26.9072 79.517 21.6607 79.2123 22.3784C78.73 23.5663 79.1108 26.8082 78.7808 26.7834C76.3439 26.6597 73.2217 23.8137 71.7748 21.735C73.5771 25.8925 76.877 29.7778 81.37 32.5C81.37 32.5 87.056 28.293 85.4822 17.9734Z" fill="#7C943A"/>
<path d="M81.0996 33.7709C79.8969 32.3394 78.4383 28.9333 77.4147 23.207C77.0053 20.8622 76.4679 17.4808 76.2632 15.3088C76.1097 14.0007 76.4167 13.5564 76.9797 14.8152C77.8242 16.7404 78.7454 20.2946 80.0249 23.5773C81.8673 28.2668 81.9441 33.4994 81.9441 33.4994L81.0996 33.7709Z" fill="#455218"/>
<path d="M156.816 80.3916H149.405V43.3618H156.816V58.184H171.613V43.3618H179.024V80.3916H171.613V65.5951H156.816V80.3916Z" fill="#455218"/>
<path d="M222.199 62.0316C222.199 63.7876 221.967 65.4832 221.502 67.1187C221.055 68.7369 220.418 70.2605 219.591 71.6893C218.765 73.101 217.767 74.3921 216.596 75.5627C215.425 76.7334 214.134 77.7404 212.723 78.584C211.311 79.4103 209.787 80.0473 208.152 80.4949C206.516 80.9597 204.821 81.1921 203.065 81.1921C201.309 81.1921 199.613 80.9597 197.978 80.4949C196.36 80.0473 194.836 79.4103 193.407 78.584C191.995 77.7404 190.704 76.7334 189.534 75.5627C188.363 74.3921 187.356 73.101 186.512 71.6893C185.686 70.2605 185.041 68.7369 184.576 67.1187C184.128 65.4832 183.904 63.7876 183.904 62.0316C183.904 60.2757 184.128 58.58 184.576 56.9445C185.041 55.3091 185.686 53.7856 186.512 52.3739C187.356 50.9623 188.363 49.6711 189.534 48.5005C190.704 47.3299 191.995 46.3314 193.407 45.5051C194.836 44.6787 196.36 44.0418 197.978 43.5942C199.613 43.1294 201.309 42.897 203.065 42.897C204.821 42.897 206.516 43.1294 208.152 43.5942C209.787 44.0418 211.311 44.6787 212.723 45.5051C214.134 46.3314 215.425 47.3299 216.596 48.5005C217.767 49.6711 218.765 50.9623 219.591 52.3739C220.418 53.7856 221.055 55.3091 221.502 56.9445C221.967 58.58 222.199 60.2757 222.199 62.0316ZM214.84 62.0316C214.84 60.4134 214.53 58.8898 213.91 57.461C213.291 56.0149 212.447 54.7668 211.38 53.7167C210.33 52.6494 209.082 51.8058 207.635 51.1861C206.207 50.5663 204.683 50.2564 203.065 50.2564C201.429 50.2564 199.897 50.5663 198.468 51.1861C197.04 51.8058 195.791 52.6494 194.724 53.7167C193.657 54.7668 192.813 56.0149 192.193 57.461C191.574 58.8898 191.264 60.4134 191.264 62.0316C191.264 63.6498 191.574 65.1734 192.193 66.6022C192.813 68.0139 193.657 69.2534 194.724 70.3207C195.791 71.388 197.04 72.2316 198.468 72.8513C199.897 73.4711 201.429 73.781 203.065 73.781C204.683 73.781 206.207 73.4711 207.635 72.8513C209.082 72.2316 210.33 71.388 211.38 70.3207C212.447 69.2534 213.291 68.0139 213.91 66.6022C214.53 65.1734 214.84 63.6498 214.84 62.0316Z" fill="#455218"/>
<path d="M234.491 50.7729V65.5951H241.902C242.918 65.5951 243.873 65.4058 244.769 65.027C245.664 64.6311 246.447 64.0974 247.118 63.426C247.79 62.7546 248.315 61.9714 248.694 61.0762C249.09 60.1638 249.288 59.1997 249.288 58.184C249.288 57.1683 249.09 56.2129 248.694 55.3177C248.315 54.4053 247.79 53.6134 247.118 52.942C246.447 52.2706 245.664 51.7456 244.769 51.3668C243.873 50.9709 242.918 50.7729 241.902 50.7729H234.491ZM234.491 80.3916H227.08V43.3618H241.902C243.262 43.3618 244.571 43.5425 245.827 43.9041C247.084 44.2484 248.255 44.7476 249.339 45.4018C250.441 46.0387 251.439 46.8134 252.335 47.7258C253.247 48.621 254.022 49.6195 254.659 50.7213C255.313 51.823 255.812 53.0023 256.156 54.259C256.518 55.5157 256.699 56.824 256.699 58.184C256.699 59.4579 256.535 60.6974 256.208 61.9025C255.898 63.1076 255.442 64.2524 254.839 65.3369C254.254 66.4215 253.531 67.42 252.67 68.3324C251.81 69.2448 250.845 70.0367 249.778 70.708L253.884 80.3916H246.008L242.78 72.9288L234.491 72.9804V80.3916Z" fill="#455218"/>
<path d="M276.453 80.3916H269.068V50.7729H257.938V43.3618H287.557V50.7729H276.453V80.3916Z" fill="#455218"/>
<path d="M298.893 80.3916H291.482V43.3618H298.893V80.3916Z" fill="#455218"/>
<path d="M335.458 61.8767C335.458 63.581 335.234 65.225 334.787 66.8088C334.356 68.3754 333.736 69.8473 332.927 71.2245C332.118 72.5845 331.154 73.8326 330.035 74.9688C328.916 76.0878 327.668 77.0518 326.291 77.8609C324.914 78.6701 323.433 79.2984 321.849 79.746C320.283 80.1764 318.647 80.3916 316.943 80.3916H305.788V43.3618H316.943C318.647 43.3618 320.283 43.5856 321.849 44.0332C323.433 44.4636 324.914 45.0833 326.291 45.8924C327.668 46.7015 328.916 47.6742 330.035 48.8104C331.154 49.9294 332.118 51.1775 332.927 52.5547C333.736 53.9147 334.356 55.3866 334.787 56.9704C335.234 58.5369 335.458 60.1724 335.458 61.8767ZM328.047 61.8767C328.047 60.3445 327.754 58.9071 327.169 57.5643C326.601 56.2215 325.809 55.0509 324.793 54.0524C323.795 53.0367 322.615 52.2362 321.255 51.6509C319.913 51.0656 318.475 50.7729 316.943 50.7729H313.25V72.9804H316.943C318.475 72.9804 319.913 72.6964 321.255 72.1283C322.615 71.543 323.795 70.7511 324.793 69.7526C325.809 68.7369 326.601 67.5577 327.169 66.2149C327.754 64.8549 328.047 63.4088 328.047 61.8767Z" fill="#B3C948"/>
<path d="M376.671 62.0316C376.671 63.7876 376.439 65.4832 375.974 67.1187C375.526 68.7369 374.889 70.2605 374.063 71.6893C373.237 73.101 372.238 74.3921 371.067 75.5627C369.897 76.7334 368.606 77.7404 367.194 78.584C365.782 79.4103 364.259 80.0473 362.623 80.4949C360.988 80.9597 359.292 81.1921 357.536 81.1921C355.78 81.1921 354.085 80.9597 352.449 80.4949C350.831 80.0473 349.308 79.4103 347.879 78.584C346.467 77.7404 345.176 76.7334 344.005 75.5627C342.835 74.3921 341.828 73.101 340.984 71.6893C340.158 70.2605 339.512 68.7369 339.047 67.1187C338.6 65.4832 338.376 63.7876 338.376 62.0316C338.376 60.2757 338.6 58.58 339.047 56.9445C339.512 55.3091 340.158 53.7856 340.984 52.3739C341.828 50.9623 342.835 49.6711 344.005 48.5005C345.176 47.3299 346.467 46.3314 347.879 45.5051C349.308 44.6787 350.831 44.0418 352.449 43.5942C354.085 43.1294 355.78 42.897 357.536 42.897C359.292 42.897 360.988 43.1294 362.623 43.5942C364.259 44.0418 365.782 44.6787 367.194 45.5051C368.606 46.3314 369.897 47.3299 371.067 48.5005C372.238 49.6711 373.237 50.9623 374.063 52.3739C374.889 53.7856 375.526 55.3091 375.974 56.9445C376.439 58.58 376.671 60.2757 376.671 62.0316ZM369.312 62.0316C369.312 60.4134 369.002 58.8898 368.382 57.461C367.762 56.0149 366.919 54.7668 365.851 53.7167C364.801 52.6494 363.553 51.8058 362.107 51.1861C360.678 50.5663 359.155 50.2564 357.536 50.2564C355.901 50.2564 354.369 50.5663 352.94 51.1861C351.511 51.8058 350.263 52.6494 349.196 53.7167C348.128 54.7668 347.285 56.0149 346.665 57.461C346.045 58.8898 345.735 60.4134 345.735 62.0316C345.735 63.6498 346.045 65.1734 346.665 66.6022C347.285 68.0139 348.128 69.2534 349.196 70.3207C350.263 71.388 351.511 72.2316 352.94 72.8513C354.369 73.4711 355.901 73.781 357.536 73.781C359.155 73.781 360.678 73.4711 362.107 72.8513C363.553 72.2316 364.801 71.388 365.851 70.3207C366.919 69.2534 367.762 68.0139 368.382 66.6022C369.002 65.1734 369.312 63.6498 369.312 62.0316Z" fill="#B3C948"/>
<path d="M395.909 80.3916H388.524V50.7729H377.394V43.3618H407.013V50.7729H395.909V80.3916Z" fill="#B3C948"/>
</svg>
