<svg width="177" height="202" viewBox="0 0 177 202" fill="none" xmlns="http://www.w3.org/2000/svg">
<path fill-rule="evenodd" clip-rule="evenodd" d="M144.192 11.4796C145.652 11.9441 148.24 13.3044 152.287 15.4278C154.344 16.5227 157.463 18.1484 158.193 18.3807C158.757 18.5798 159.222 18.8784 159.62 19.2433C159.752 19.2433 159.896 19.2433 160.051 19.2433C160.449 19.2433 160.847 19.3097 161.245 19.4424C162.141 19.741 163.502 20.2055 164.729 20.6036L166.388 21.1677C167.516 21.5326 168.412 22.4284 168.777 23.5565C169.142 24.6845 168.976 25.9453 168.279 26.9075C164.995 31.5524 160.482 37.1596 156.269 41.9372C154.245 44.2597 152.387 46.2172 150.927 47.5775C148.77 49.6346 147.277 50.7626 145.453 50.7626C144.9 50.7626 144.38 50.6631 143.893 50.464C142.865 49.9995 141.936 49.2696 141.239 48.3406C138.651 48.1084 135.565 46.6485 134.404 44.127C133.774 42.7003 133.973 41.9704 135.101 38.0222C136.66 32.6805 139.845 21.5326 139.315 15.3946C139.182 14.1339 139.713 12.9063 140.708 12.1432C141.372 11.5791 142.201 11.3137 143.064 11.3137C143.44 11.3137 143.816 11.369 144.192 11.4796ZM137.855 42.5676C138.319 43.563 140.244 44.5915 141.969 44.5915C142.5 44.5915 142.997 44.4919 143.429 44.2597C143.727 45.5536 144.424 46.5822 145.353 46.9803C145.375 47.0024 145.408 47.0135 145.453 47.0135C147.244 47.0135 158.425 34.273 165.194 24.7177C163.833 24.2532 161.411 23.4569 160.051 22.9925C157.098 28.0024 155.439 30.9552 149.6 36.4628C153.913 30.6234 154.842 26.8079 156.999 21.9639C154.875 21.234 145.419 15.826 143.064 15.0629C143.827 24.3528 137.589 41.9704 137.855 42.5676Z" fill="#455218"/>
<path d="M160.051 22.9923C157.098 28.0022 155.439 30.9551 149.6 36.4627C153.913 30.6233 154.842 26.8078 156.999 21.9638C154.875 21.2339 145.419 15.8258 143.064 15.0627C143.827 24.3526 137.589 41.9703 137.855 42.5675C138.452 43.8946 141.604 45.2217 143.429 44.2596C143.727 45.5535 144.424 46.582 145.353 46.9802C146.746 47.5774 158.259 34.5052 165.194 24.7176C163.833 24.2531 161.411 23.4568 160.051 22.9923Z" fill="#99C12A"/>
<path d="M160.051 22.9927C157.098 28.0026 155.439 30.9555 149.6 36.4631C153.913 30.6237 154.842 26.8082 156.999 21.9642C156.6 21.8315 155.937 21.5329 155.107 21.1016C154.953 21.3228 154.798 21.5329 154.643 21.7319C153.581 26.1778 152.719 30.3915 147.476 32.6144C145.154 33.6098 142.666 33.9084 140.21 33.6761C138.95 38.5533 137.722 42.3024 137.855 42.5679C138.452 43.895 141.604 45.2221 143.429 44.26C143.727 45.5539 144.424 46.5824 145.353 46.9806C146.747 47.5778 158.259 34.5056 165.194 24.718C163.833 24.2535 161.411 23.4572 160.051 22.9927Z" fill="#7C943A"/>
<path d="M134.504 81.1868C132.679 84.7701 130.124 87.7893 127.47 91.5716C125.048 94.989 122.593 99.3021 119.673 102.786C114.365 109.057 109.255 114.63 104.212 119.209C102.653 120.636 94.9553 126.176 94.5903 119.574C94.4576 117.152 95.8511 114.796 96.7137 112.872C98.2067 109.621 99.932 106.435 101.392 102.952C102.819 99.5344 103.947 95.8848 105.274 92.3347C106.734 88.5856 108.791 85.1682 110.35 81.6181C113.236 75.082 116.057 69.0104 118.512 62.1757C119.773 58.7915 122.062 56.0709 123.588 52.6536C124.915 49.6343 125.247 46.0511 127.404 43.43C131.285 38.7519 139.912 37.8229 145.22 40.6762C148.969 42.7001 150.661 46.5156 151.159 50.5965C151.624 54.5447 149.699 57.0663 147.476 60.0855C144.756 63.7683 143.196 68.5459 140.774 72.3946C138.684 75.7788 136.03 78.1344 134.504 81.1868Z" fill="#E36B00"/>
<path fill-rule="evenodd" clip-rule="evenodd" d="M147.012 37.3586C151.458 39.7474 154.178 44.1933 154.908 50.1653C155.539 55.4739 152.951 58.9908 150.661 62.1095L150.496 62.3086C149.168 64.1334 148.14 66.3231 147.012 68.6456C146.083 70.57 145.121 72.5275 143.959 74.3854C142.898 76.1107 141.737 77.5705 140.675 78.8645C139.514 80.2912 138.518 81.5519 137.855 82.8791C136.395 85.7656 134.57 88.2208 132.646 90.8418C131.949 91.7708 131.252 92.733 130.555 93.7283C130.224 94.1928 129.859 94.6905 129.527 95.2214C129.527 95.2214 129.527 95.2324 129.527 95.2545C129.062 95.9181 128.565 96.648 128.1 97.3448C126.508 99.8331 124.65 102.686 122.526 105.175C119.54 108.758 116.787 111.844 114.132 114.697L113.8 115.029C113.579 115.25 113.369 115.471 113.17 115.692C110.98 117.982 108.824 120.105 106.767 121.996C106.534 122.162 101.69 126.508 97.1782 126.508C92.7655 126.508 91.007 122.892 90.8412 119.806C90.6753 116.754 91.9692 114.1 92.8982 112.175C93.053 111.866 93.1857 111.567 93.2963 111.28C93.8935 110.019 94.5239 108.725 95.1211 107.497C96.0833 105.573 97.0787 103.549 97.9081 101.525C98.2731 100.629 98.6048 99.7999 98.9035 98.9705C99.003 98.7383 99.0694 98.506 99.1689 98.2738C99.5007 97.3669 99.8214 96.46 100.131 95.5531C100.662 94.0601 101.193 92.5339 101.757 91.0077C102.686 88.6189 103.814 86.396 104.876 84.2726C105.605 82.8459 106.302 81.4856 106.899 80.1253C107.386 79.0415 107.862 77.9576 108.326 76.8738C109.222 74.9163 110.051 73.0583 110.848 71.1672C110.87 71.145 110.881 71.1229 110.881 71.1008C111.08 70.6584 111.279 70.205 111.478 69.7405L111.677 69.2428C113.004 66.1572 114.033 63.503 114.995 60.9151C115.791 58.6922 116.919 56.801 118.014 55.0094C118.81 53.6822 119.54 52.4546 120.138 51.1275C120.536 50.2649 120.834 49.2364 121.166 48.1415C121.863 45.8522 122.626 43.2975 124.484 41.0413C127.437 37.4581 132.579 35.3015 138.186 35.3015V39.0506C134.039 39.0506 129.792 40.5105 127.404 43.4302C125.247 46.0513 124.915 49.6345 123.588 52.6537C122.062 56.0711 119.773 58.7917 118.512 62.1759C117.45 65.1287 116.322 67.9489 115.161 70.7027C114.862 71.3662 114.597 71.9966 114.298 72.6602C113.037 75.613 111.71 78.5659 110.35 81.6183C108.791 85.1352 106.734 88.5857 105.274 92.3349C104.378 94.7569 103.548 97.1789 102.686 99.6009C102.619 99.8331 102.52 100.032 102.454 100.264C102.122 101.171 101.768 102.067 101.392 102.952C99.932 106.436 98.2067 109.621 96.7469 112.872C95.8511 114.797 94.4576 117.152 94.5903 119.574C94.723 121.93 95.7847 122.759 97.1782 122.759C99.6666 122.759 103.217 120.138 104.212 119.209C106.291 117.329 108.37 115.283 110.449 113.071C110.781 112.739 111.102 112.408 111.412 112.076C114.132 109.223 116.853 106.104 119.673 102.786C121.597 100.464 123.323 97.8424 124.948 95.2877C125.446 94.5578 125.911 93.8279 126.408 93.1311C126.762 92.6003 127.116 92.0805 127.47 91.5718C130.124 87.8226 132.712 84.7702 134.504 81.187C136.03 78.1678 138.684 75.7789 140.774 72.3948C143.196 68.5461 144.756 63.8016 147.476 60.0856C149.699 57.0664 151.624 54.5449 151.159 50.5967C150.661 46.5157 148.969 42.7003 145.22 40.6764C143.23 39.6147 140.741 39.0506 138.186 39.0506V35.3015C141.438 35.3015 144.49 36.0314 147.012 37.3586Z" fill="#455218"/>
<path d="M148.405 58.7915C148.118 59.2338 147.808 59.6652 147.476 60.0854C146.99 60.7711 146.525 61.49 146.083 62.242C144.159 65.5266 142.732 69.2758 140.774 72.3945C138.684 75.7787 136.03 78.1344 134.504 81.1868C134.238 81.6955 133.951 82.2153 133.641 82.7461C132.978 83.9074 132.214 85.0354 131.385 86.1635C130.191 87.8888 128.83 89.614 127.47 91.5715C127.116 92.0803 126.762 92.6001 126.408 93.1309C125.944 93.8277 125.446 94.5576 124.948 95.2875C123.323 97.809 121.597 100.463 119.673 102.786C116.864 106.104 114.11 109.2 111.412 112.076C111.102 112.407 110.781 112.739 110.45 113.071C108.37 115.283 106.291 117.329 104.212 119.209C102.653 120.636 94.9553 126.176 94.5903 119.607C94.4576 117.152 95.8511 114.796 96.7137 112.872C98.2067 109.62 99.932 106.435 101.392 102.952C101.757 102.056 102.122 101.16 102.454 100.264C102.52 100.043 102.597 99.8219 102.686 99.6007C103.548 97.2118 104.345 94.7566 105.274 92.3346C106.734 88.5855 108.791 85.135 110.35 81.6181C111.71 78.5657 113.037 75.6128 114.298 72.66C114.597 72.0296 114.862 71.366 115.161 70.7024C116.09 68.4463 117.019 66.1902 117.915 63.8345C118.136 63.2816 118.346 62.7286 118.545 62.1756C118.844 61.313 119.242 60.4836 119.673 59.6873C120.901 57.3648 122.46 55.2082 123.588 52.6535C124.948 49.6343 125.247 46.051 127.404 43.43C131.252 38.7186 139.912 37.856 145.22 40.6762C148.969 42.7 150.661 46.5155 151.159 50.5964C151.557 53.9806 150.197 56.3031 148.405 58.7915Z" fill="#E36B00"/>
<path d="M150.562 47.6438C150.396 48.0088 150.263 48.3737 150.131 48.6391C148.903 51.3929 147.775 54.2131 146.547 56.9669C144.192 62.1759 140.542 67.5175 136.063 71.1008C131.451 74.7172 124.617 76.8074 119.009 74.3854C117.351 73.6887 115.99 72.6602 114.829 71.4326C114.674 71.8528 114.497 72.262 114.298 72.6602C113.037 75.613 111.71 78.5659 110.35 81.6183C108.791 85.1352 106.734 88.5857 105.274 92.3348C104.345 94.7568 103.548 97.212 102.686 99.6009C102.597 99.8221 102.52 100.043 102.454 100.264C102.122 101.16 101.757 102.056 101.392 102.952C99.932 106.436 98.2067 109.621 96.7137 112.872C95.8511 114.796 94.4576 117.152 94.5903 119.607C94.9553 126.177 102.653 120.636 104.212 119.209C106.291 117.329 108.37 115.283 110.45 113.071C110.781 112.739 111.102 112.408 111.412 112.076C114.11 109.2 116.864 106.104 119.673 102.786C121.597 100.463 123.323 97.8092 124.948 95.2877C125.446 94.5578 125.944 93.8279 126.408 93.1311C126.762 92.6003 127.116 92.0805 127.47 91.5717C128.83 89.6142 130.191 87.889 131.385 86.1637C132.214 85.0356 132.978 83.9076 133.641 82.7463C133.951 82.2155 134.238 81.6957 134.504 81.187C136.03 78.1346 138.684 75.7789 140.774 72.3947C142.732 69.276 144.159 65.5269 146.083 62.2422C146.525 61.4902 146.99 60.7713 147.476 60.0856C147.808 59.6654 148.118 59.234 148.405 58.7917C150.197 56.3033 151.557 53.9808 151.159 50.5967C151.026 49.6013 150.827 48.606 150.562 47.6438Z" fill="#D15E00"/>
<path d="M146.083 62.2421C145.585 62.0099 145.121 61.7776 144.623 61.479C140.144 58.6257 138.452 54.9761 138.452 54.9761C141.703 55.8387 143.528 56.1373 146.946 57.9621C147.476 58.2497 147.963 58.5261 148.405 58.7916L146.083 62.2421Z" fill="#C74600"/>
<path d="M129.925 67.0528C129.527 67.0528 123.953 66.6879 117.915 63.8345C118.136 63.2816 118.346 62.7286 118.545 62.1756C118.844 61.313 119.242 60.4835 119.673 59.6873C119.806 59.7315 119.95 59.7868 120.104 59.8531C123.555 61.1803 126.209 63.8345 129.925 67.0528Z" fill="#C74600"/>
<path d="M133.641 82.7464C132.977 83.9076 132.214 85.0357 131.385 86.1638C128.167 84.1067 125.745 81.6847 123.09 78.9309C123.09 78.9309 127.105 78.9309 133.641 82.7464Z" fill="#C74600"/>
<path d="M104.477 92.7002C104.013 93.9941 103.482 95.2881 102.918 96.5489C107.862 99.1699 114.298 102.488 114.298 102.488C114.298 102.488 110.051 96.8807 104.477 92.7002Z" fill="#455218"/>
<path d="M155.804 18.447C155.804 18.447 154.377 28.2014 149.6 36.4628C149.6 36.4628 156.998 31.9837 162.274 21.3667L155.804 18.447Z" fill="#455218"/>
<path fill-rule="evenodd" clip-rule="evenodd" d="M48.4725 86.1306C49.2356 86.8937 49.667 87.889 49.6006 88.9839C49.6006 89.1498 49.6338 90.311 50.0319 92.6999C50.0983 93.1201 50.1646 93.5736 50.231 94.0602C50.4632 96.0177 50.795 98.7051 52.4539 100.132C53.8806 101.359 57.1984 103.848 61.8434 107.066C63.4027 108.161 63.9004 110.251 63.0046 111.943C60.7153 116.19 57.8952 120.072 54.5773 123.489C53.8474 124.219 52.8521 124.617 51.8899 124.617C51.0273 124.617 50.1314 124.319 49.4347 123.688C44.7234 119.641 42.5005 118.181 41.6046 117.683C39.0831 116.29 36.7938 115.626 34.405 115.626C34.1174 115.626 33.8188 115.637 33.5092 115.659C31.4521 115.792 26.409 116.92 24.6506 117.318C24.363 117.384 24.0755 117.418 23.7879 117.418C22.7594 117.418 21.7973 117.019 21.0673 116.256C20.1383 115.294 19.8066 113.934 20.1715 112.64L21.2664 108.692C21.6645 107.298 22.8258 106.27 24.2524 106.004C24.4847 105.971 25.4137 105.805 26.6745 105.606C26.21 105.297 25.7565 104.998 25.3141 104.71C23.8211 103.748 23.2239 101.857 23.8543 100.198L25.4469 95.9845C25.8782 94.8564 26.8403 93.9938 28.0679 93.6952C28.3555 93.6067 28.6541 93.5625 28.9638 93.5625C29.5941 93.5625 30.2577 93.7284 30.8217 94.0602L33.476 90.7423C34.2059 89.8465 35.3008 89.3489 36.4288 89.3489C36.5616 89.3489 36.6832 89.3489 36.7938 89.3489C37.0371 89.371 37.2804 89.4263 37.5237 89.5147C37.4574 88.7848 37.6233 88.0549 37.9882 87.4245C38.5854 86.3296 39.7135 85.6329 40.9411 85.5002L45.5197 85.1352C45.6524 85.1131 45.774 85.1021 45.8846 85.1021C46.8468 85.1021 47.7758 85.467 48.4725 86.1306ZM41.2729 89.2493C41.2729 89.2493 42.1355 90.9746 42.8986 93.8279C43.5953 96.449 44.7234 99.6009 42.7327 99.6009C42.5558 99.6009 42.3678 99.5788 42.1687 99.5346C39.3817 98.9374 36.4288 93.098 36.4288 93.098L33.3433 96.9467C33.3433 96.9467 37.9882 101.691 37.0261 102.653C36.9597 102.72 36.8602 102.753 36.7275 102.753C35.1017 102.753 28.9638 97.3448 28.9638 97.3448L27.3712 101.558C27.3712 101.558 38.1209 108.526 35.4335 108.526C35.4114 108.526 35.3893 108.526 35.3671 108.526C35.2123 108.526 35.0575 108.526 34.9027 108.526C31.7175 108.526 24.8828 109.72 24.8828 109.72L23.7879 113.668C23.7879 113.668 30.4568 112.109 33.2437 111.91C33.6198 111.888 34.0068 111.877 34.405 111.877C36.9597 111.877 39.9126 112.441 43.4295 114.398C45.6524 115.626 49.1693 118.479 51.8899 120.835C55.0418 117.617 57.6297 114.033 59.6868 110.152C56.4353 107.895 51.9563 104.677 49.9656 102.985C46.7473 100.165 46.6809 95.4536 46.3491 93.3302C45.8183 90.2447 45.8515 88.8844 45.8515 88.8844L41.2729 89.2493Z" fill="#455218"/>
<path d="M43.4295 114.398C45.6524 115.626 49.1693 118.479 51.8899 120.835C55.0418 117.617 57.6297 114.033 59.6868 110.152C56.4353 107.895 51.9563 104.677 49.9656 102.985C46.7473 100.165 46.6809 95.4536 46.3491 93.3302C45.8183 90.2446 45.8515 88.8843 45.8515 88.8843L41.2729 89.2492C41.2729 89.2492 42.1355 90.9745 42.8986 93.8278C43.6617 96.6812 44.9225 100.132 42.1687 99.5345C39.3817 98.9373 36.4289 93.0979 36.4289 93.0979L33.3433 96.9466C33.3433 96.9466 37.9882 101.691 37.0261 102.653C36.0639 103.582 28.9638 97.3447 28.9638 97.3447L27.3712 101.558C27.3712 101.558 38.2868 108.658 35.3672 108.526C32.4143 108.393 24.8828 109.72 24.8828 109.72L23.788 113.668C23.788 113.668 30.4568 112.109 33.2438 111.91C36.0307 111.711 39.3485 112.142 43.4295 114.398Z" fill="#7E9E2C"/>
<path fill-rule="evenodd" clip-rule="evenodd" d="M35.9312 70.8686C37.2915 69.9396 38.884 69.442 40.6425 69.442C43.1308 69.442 45.6856 70.5037 47.6762 72.3285C52.3875 76.6748 53.1175 84.3721 49.302 89.5148C46.9131 92.6667 42.9981 94.591 38.8177 94.591C38.132 94.591 37.4574 94.5357 36.7938 94.4252C35.5662 97.1458 33.5755 99.4351 31.0871 100.928C31.4853 103.284 31.1203 105.838 29.9259 108.061C28.4329 110.915 26.3758 112.839 23.987 113.768C23.6552 115.759 22.7926 117.617 21.8636 118.678C19.7402 121.034 15.9579 121.864 13.37 121.864C12.4078 121.864 11.5452 121.764 10.7489 121.565C7.92875 120.835 5.44038 119.209 3.51605 116.854C0.861789 113.569 -0.299449 110.218 0.0655117 106.933C0.297759 104.644 1.22675 102.156 2.8193 100.298C1.459 97.2121 1.85714 93.5957 3.35015 90.8087C3.79253 89.9903 4.3455 89.2715 5.00907 88.6521C4.67728 86.1638 5.00907 83.6422 5.93806 81.5188C8.19417 76.2435 13.1377 72.6934 18.1476 72.6934C19.1209 72.6934 20.083 72.8151 21.0341 73.0584C21.9963 71.7976 23.1907 70.8023 24.551 70.0723C26.0772 69.2761 27.7361 68.8779 29.4282 68.8779C32.0161 68.8779 34.2391 69.8069 35.9312 70.8686ZM26.3095 73.3902C24.4183 74.3855 23.2571 76.144 22.6931 77.8692C21.1669 76.8739 19.6075 76.4426 18.1476 76.4426C14.299 76.4426 10.9148 79.4286 9.38859 83.0118C8.4596 85.1353 8.39324 87.9222 9.25588 90.3774C8.19417 90.7755 7.26518 91.5055 6.66798 92.6004C5.34085 95.0224 5.1086 98.9706 8.26053 101.227C5.63945 101.558 4.08008 104.71 3.81465 107.365C3.51605 109.986 4.77682 112.408 6.43573 114.498C7.79604 116.19 9.58766 117.384 11.6779 117.915C12.1756 118.048 12.7396 118.114 13.37 118.114C15.427 118.114 17.9154 117.418 19.0434 116.157C20.0056 115.062 20.8351 112.043 20.1383 110.55C20.3374 110.572 20.5365 110.583 20.7355 110.583C23.3566 110.583 25.3141 108.725 26.6081 106.303C27.8025 104.047 27.8357 101.028 26.3427 98.9706C26.3205 98.9263 26.2984 98.8821 26.2763 98.8379C27.1721 98.672 28.0347 98.3402 28.831 97.9089C31.8171 96.25 33.8409 93.0317 34.3054 89.6143C35.6657 90.4438 37.2251 90.8087 38.8177 90.8087C41.671 90.8087 44.5575 89.548 46.2828 87.2587C48.937 83.6754 48.4062 78.1015 45.1547 75.0823C43.8608 73.921 42.235 73.1911 40.6425 73.1911C38.9504 73.1911 37.3246 74.0206 36.3293 75.9781C36.3293 75.9781 33.2769 72.6271 29.4282 72.6271C28.4329 72.6271 27.3712 72.8593 26.3095 73.3902Z" fill="#455218"/>
<path d="M36.3292 75.9782C36.3292 75.9782 31.5184 70.6697 26.3094 73.3903C24.4183 74.3857 23.257 76.1441 22.693 77.8694C17.1522 74.2861 11.5119 78.0685 9.38853 83.012C8.45954 85.1354 8.39319 87.9224 9.25582 90.3776C8.19412 90.7757 7.26513 91.5056 6.66792 92.6005C5.34079 95.0225 5.10854 98.9707 8.26047 101.227C5.63939 101.559 4.08002 104.711 3.81459 107.365C3.51599 109.986 4.77676 112.408 6.43567 114.498C7.79598 116.19 9.5876 117.385 11.6778 117.915C13.8012 118.48 17.5835 117.816 19.0434 116.157C20.0056 115.062 20.835 112.043 20.1383 110.55C23.058 110.882 25.2145 108.924 26.608 106.303C27.8024 104.047 27.8356 101.028 26.3426 98.9707C26.3205 98.9265 26.2984 98.8823 26.2762 98.838C27.1721 98.6721 28.0347 98.3403 28.831 97.909C31.817 96.2501 33.8409 93.0318 34.3054 89.6145C38.1209 91.9038 43.5953 90.8089 46.2827 87.2588C48.937 83.6756 48.4061 78.1016 45.1546 75.0824C42.5336 72.6936 38.2868 72.1627 36.3292 75.9782Z" fill="#B3C948"/>
<path d="M17.849 98.2737C19.3752 102.487 18.9439 106.635 16.4887 109.621C13.8676 112.806 5.70577 112.341 3.78143 108.194C3.78143 110.483 4.94267 112.64 6.43569 114.498C7.796 116.19 9.58762 117.384 11.6778 117.915C13.8013 118.479 17.5836 117.816 19.0434 116.157C20.0056 115.062 20.835 112.043 20.1383 110.55C23.058 110.881 25.2146 108.924 26.608 106.303C27.537 104.544 27.7693 102.321 27.1057 100.463C23.8874 100.43 20.7355 99.7999 17.849 98.2737Z" fill="#7C943A"/>
<path d="M26.2763 98.8378C25.0487 99.0369 21.4323 99.8331 18.2472 98.5392C18.2472 98.5392 21.93 104.014 27.338 102.852C32.7461 101.658 32.9783 97.7429 32.9783 97.7429C32.9783 97.7429 27.5703 98.6387 26.2763 98.8378Z" fill="#455218"/>
<path d="M22.693 77.8694C22.693 77.8694 26.409 80.1255 27.5039 82.2158C27.5039 82.2158 27.338 75.6465 22.0958 73.0254L22.693 77.8694Z" fill="#455218"/>
<path d="M5.00908 112.806C5.00908 112.806 2.95203 107.531 6.00442 104.644C7.63016 103.085 9.91945 102.587 12.2419 103.251C12.2419 103.251 10.5167 100.132 7.2652 100.099C2.81932 100.099 1.49219 104.511 1.49219 104.511L5.00908 112.806Z" fill="#455218"/>
<path d="M34.3054 89.6144C34.4381 87.4578 33.8078 84.4717 33.0115 82.282C33.0115 82.282 38.7845 84.0404 38.5191 92.335L34.3054 89.6144Z" fill="#455218"/>
<path d="M9.25589 90.3773C9.25589 90.3773 10.7489 93.9274 13.0382 94.4914C13.0382 94.4914 6.13714 96.2167 4.74365 90.2446L9.25589 90.3773Z" fill="#455218"/>
<path d="M171 79.0969C175.512 97.6435 171.132 114.763 145.618 122.859C119.706 131.054 106.734 119.972 99.6002 102.454C99.2352 101.592 99.4675 99.5015 100.231 99.2692C119.54 93.0317 150.761 82.9456 168.445 77.2721C169.208 77.0067 170.801 78.3006 171 79.0969Z" fill="#E74641"/>
<path fill-rule="evenodd" clip-rule="evenodd" d="M174.649 78.2008C180.456 102.155 170.834 118.811 146.747 126.442C140.609 128.399 134.869 129.362 129.693 129.362C121.398 129.362 114.265 126.873 108.392 121.963C103.349 117.749 99.3348 111.81 96.1166 103.881C95.453 102.288 95.5193 99.8993 96.3156 98.2404C96.9128 96.9797 97.875 96.0838 99.0694 95.6857L167.284 73.6886C167.726 73.5337 168.18 73.4563 168.644 73.4563C171.132 73.4563 174.052 75.7788 174.649 78.2008ZM168.445 77.2718C150.761 82.9453 119.54 93.0315 100.231 99.269C99.4676 99.5012 99.2353 101.591 99.6003 102.454C105.075 115.924 114.033 125.612 129.693 125.612C134.371 125.612 139.646 124.75 145.618 122.859C171.132 114.763 175.512 97.6432 171 79.0966C170.801 78.3667 169.44 77.2386 168.644 77.2386C168.578 77.2386 168.511 77.2497 168.445 77.2718Z" fill="#455218"/>
<path d="M161.279 84.936C164.862 97.5438 160.482 110.052 143.263 115.526C125.645 121.1 115.227 113.569 110.748 101.26L161.279 84.936Z" fill="#E7807D"/>
<path d="M139.447 98.2074C141.305 101.326 144.225 106.203 144.358 109.554C144.523 112.905 140.841 113.27 139.779 111.081C138.253 107.895 137.523 101.26 137.324 98.9374C137.158 96.6481 137.821 95.4868 139.447 98.2074Z" fill="#E74641"/>
<path d="M132.944 100.795C133.376 104.08 134.139 109.156 132.911 111.976C131.684 114.796 128.167 113.701 128.1 111.478C127.968 108.26 129.958 102.554 130.721 100.596C131.484 98.6385 132.546 97.9418 132.944 100.795Z" fill="#E74641"/>
<path d="M127.238 101.957C125.778 104.18 123.522 107.63 121.232 108.526C118.976 109.455 117.317 106.701 118.445 105.341C120.104 103.383 124.417 101.227 125.944 100.53C127.47 99.8332 128.532 100.065 127.238 101.957Z" fill="#E74641"/>
<path d="M142.997 97.5434C144.557 100.463 146.946 105.042 149.567 106.601C152.188 108.16 154.411 105.241 153.183 103.383C151.425 100.729 146.448 97.2448 144.689 96.0836C142.931 94.9555 141.67 95.0219 142.997 97.5434Z" fill="#E74641"/>
<path d="M148.306 95.1881C150.794 96.117 154.643 97.5769 157.032 96.9797C159.387 96.4156 159.122 93.1974 157.397 92.766C154.941 92.1357 150.164 92.8988 148.505 93.2305C146.879 93.5623 146.149 94.3586 148.306 95.1881Z" fill="#E74641"/>
<g style="mix-blend-mode:multiply">
<path d="M152.055 111.446C147.543 111.545 143.13 110.749 139.149 108.559C127.238 101.957 127.603 92.6999 126.674 90.7424C117.052 93.828 107.729 96.8472 100.231 99.2692C99.4675 99.5015 99.2352 101.592 99.6002 102.454C106.734 119.972 119.706 131.054 145.618 122.859C161.511 117.816 169.208 109.256 171.663 99.037C167.98 105.407 161.278 111.213 152.055 111.446Z" fill="#C9BDBD"/>
</g>
<path d="M70.1379 40.0125C70.4697 42.4013 64.564 43.9275 62.1751 43.7616C60.1513 43.5957 61.0802 40.3774 60.9807 38.3204C60.848 35.5666 58.2269 29.1632 56.933 25.4141C55.9044 22.428 59.5209 22.2621 60.3835 22.8593H60.4167C61.8102 23.921 63.27 29.2959 64.564 33.045C65.8247 36.7942 69.8061 37.6568 70.1379 40.0125Z" fill="#455218"/>
<path fill-rule="evenodd" clip-rule="evenodd" d="M70.2043 38.2211C74.4179 38.2211 77.9017 39.88 80.5559 42.0697C81.3854 42.7333 82.1153 43.43 82.7789 44.16C87.8551 49.7007 89.1491 51.6251 102.686 64.2328C115.559 76.2433 131.053 96.1502 122.659 114.664C116.023 129.262 103.117 135.201 97.7754 136.495C95.1543 137.656 90.1112 139.05 83.9401 139.05C78.2003 139.05 71.4983 137.855 64.7299 134.239C46.8137 124.584 47.8422 99.5012 50.032 82.0163C50.2642 80.1251 50.4633 78.3999 50.6623 76.8073C52.1222 65.0622 52.5203 60.8154 52.9848 54.213C53.1839 51.5919 55.2078 42.3352 64.2986 39.2496C66.422 38.5528 68.3795 38.2211 70.2043 38.2211ZM70.2043 34.4719C67.8818 34.4719 65.493 34.8701 63.1042 35.6663C52.9185 39.1169 49.5675 49.1367 49.2357 53.9475C48.738 60.6164 48.3399 64.7968 46.9464 76.3428L46.4819 79.9924L46.2828 81.5518C45.3207 89.3819 44.2258 100.994 46.1169 111.711C48.3067 124.02 53.9802 132.713 62.9383 137.557C69.4412 141.04 76.5082 142.799 83.9401 142.799C91.6374 142.799 97.0787 140.874 98.9698 140.078C105.97 138.287 119.209 131.319 126.076 116.223C130.323 106.867 129.626 96.4488 124.019 85.3009C119.009 75.4138 111.047 66.887 105.241 61.479C94.0594 51.061 91.3057 48.0086 87.8551 44.1268C87.1252 43.3637 86.3953 42.5342 85.5658 41.6052C84.7032 40.6762 83.8406 39.88 82.9447 39.1501C79.1956 36.0977 74.7829 34.4719 70.2043 34.4719Z" fill="#455218"/>
<path d="M122.659 114.664C116.023 129.262 103.117 135.201 97.7754 136.495C92.7323 138.718 78.8638 141.837 64.7299 134.239C46.8137 124.584 47.8422 99.5015 50.032 82.0166C50.2642 80.1254 50.4633 78.4002 50.6623 76.8076C52.1222 65.0625 52.5203 60.8157 52.9848 54.2132C53.1839 51.5922 55.2078 42.3354 64.2986 39.2499C71.266 36.8942 76.7404 38.9513 80.5559 42.07C81.3854 42.7336 82.1153 43.4303 82.7788 44.1602C87.8551 49.701 89.1491 51.6253 102.686 64.2331C115.559 76.2436 131.053 96.1505 122.659 114.664Z" fill="#7E9E2C"/>
<path d="M115.294 113.403C110.317 125.646 100.197 130.424 95.9838 131.386C92.0356 133.178 81.0868 135.533 69.7067 128.798C55.2742 120.271 55.6059 99.0372 56.9662 84.2397C57.1211 82.6471 57.2538 81.1762 57.3644 79.827C58.2934 69.9067 58.4924 66.3566 58.7579 60.7495C58.8574 58.5266 60.2509 50.7297 67.4174 48.3077C72.925 46.4497 77.3045 48.3077 80.3901 51.0283C81.0536 51.5923 81.6508 52.1895 82.1817 52.8199C86.329 57.6308 87.3907 59.2897 98.4058 70.2717C108.857 80.6896 121.564 97.8759 115.294 113.403Z" fill="#ECC54A"/>
<path d="M101.989 93.2971C105.805 103.35 101.79 114.133 93.0309 117.451C84.305 120.769 74.1525 115.327 70.337 105.274C65.8248 93.3303 67.8818 77.3716 76.6077 74.0538C79.7596 72.8594 83.3097 73.4566 86.7934 75.2814C93.0641 78.4997 99.1025 85.633 101.989 93.2971Z" fill="#683C1D"/>
<path d="M73.6549 78.8977C71.067 83.045 70.2375 93.463 73.0909 101.592C75.9442 109.753 82.3476 110.716 87.6561 109.355C92.9314 108.028 96.1165 97.6102 92.9314 90.2779C87.8552 78.6987 78.9302 70.3709 73.6549 78.8977Z" fill="#814C2E"/>
<path opacity="0.6" d="M76.5082 83.2106C73.2567 86.4289 73.3231 95.4201 76.2427 98.8375C79.0961 102.189 79.7928 97.5767 80.2905 94.7898C80.6223 92.7991 81.7171 78.5324 76.6409 83.0779C76.5966 83.1221 76.5524 83.1663 76.5082 83.2106Z" fill="white"/>
<g style="mix-blend-mode:multiply">
<path d="M94.5903 122.759C69.6403 127.205 50.9941 106.27 48.8707 100.331C49.103 113.967 52.5203 127.669 64.7299 134.239C78.8638 141.837 92.7323 138.718 97.7754 136.495C103.117 135.201 116.023 129.262 122.659 114.664C125.645 108.094 125.612 101.392 123.754 94.8894C117.915 114.962 114.298 119.209 94.5903 122.759Z" fill="#D9CCCC"/>
</g>
<path d="M72.958 158.692H79.66C81.1198 160.682 82.5797 163.403 84.305 163.403C86.0302 163.403 87.1251 162.043 89.2485 160.019C89.2485 160.019 95.5524 162.142 97.9744 160.948L97.0122 150.662L72.958 148.439V158.692Z" fill="#455218"/>
<path fill-rule="evenodd" clip-rule="evenodd" d="M139.646 115.261C163.302 119.541 169.009 123.887 169.905 124.75C170.734 125.48 171.165 126.575 171.099 127.67C171.066 128.798 170.502 129.826 169.606 130.49C168.743 131.153 147.808 146.946 132.446 156.137C125.811 160.118 117.483 162.109 107.629 162.109C99.1024 162.109 92.5663 160.583 92.3008 160.516C91.0732 160.218 90.0779 159.322 89.6466 158.161C89.4143 157.497 89.348 156.8 89.4807 156.17C88.1204 157.696 87.3573 158.691 87.3241 158.725C86.5942 159.687 85.4661 160.218 84.3049 160.218C83.9289 160.218 83.5418 160.151 83.1437 160.019C81.6838 159.554 80.6553 158.227 80.5558 156.701C80.4894 156.546 80.4009 156.38 80.2903 156.203C80.2682 156.247 80.2461 156.292 80.224 156.336C79.7263 157.331 78.8305 158.061 77.7356 158.326C77.437 158.393 74.7164 159.056 70.8677 159.056C65.9242 159.056 58.824 157.961 53.0842 152.786C44.292 144.856 32.945 129.926 32.4474 129.296C31.4188 127.902 31.452 125.978 32.5801 124.617C33.1441 123.921 38.6185 117.915 54.7763 116.92C55.3514 116.898 55.9486 116.887 56.5679 116.887C64.1989 116.887 71.9626 119.773 77.8683 124.816C80.8875 127.371 83.3096 130.424 85.068 133.808C87.9545 128.864 92.2013 124.717 97.6425 121.465C105.638 116.754 116.156 114.133 127.271 114.133C131.484 114.133 135.632 114.531 139.646 115.261ZM84.6035 146.78C84.2054 130.656 69.8724 120.636 56.5679 120.636C56.0371 120.636 55.5062 120.658 54.9754 120.702C40.012 121.598 35.4666 127.039 35.4666 127.039C35.4666 127.039 46.9794 142.202 55.6057 149.999C60.4166 154.312 66.455 155.274 70.8677 155.274C74.3846 155.274 76.8398 154.677 76.8398 154.677C69.6733 138.585 56.6343 132.381 56.6343 132.381C73.5552 133.708 83.9399 154.776 84.3381 155.871C84.3381 156.07 84.3049 156.236 84.3049 156.435C84.3049 156.435 103.25 131.452 128.166 131.452C129.095 131.452 130.013 131.496 130.92 131.585C130.92 131.585 107.662 136.926 93.1967 156.833C93.1967 156.833 99.4342 158.36 107.629 158.36C114.762 158.36 123.356 157.198 130.489 152.918C145.884 143.728 167.35 127.504 167.35 127.504C167.35 127.504 162.738 123.257 138.983 118.944C135.233 118.28 131.252 117.915 127.271 117.915C107.662 117.915 87.2246 126.442 84.6035 146.78Z" fill="#455218"/>
<path d="M54.9754 120.702C68.7112 119.873 84.2054 130.025 84.6035 146.78C87.7555 122.295 116.753 114.929 138.983 118.944C162.738 123.257 167.35 127.504 167.35 127.504C167.35 127.504 145.884 143.728 130.489 152.918C115.128 162.142 91.77 156.833 91.77 156.833C106.236 136.927 130.92 131.585 130.92 131.585C104.676 129.594 84.3049 157.132 84.3049 157.132C84.3049 156.933 84.3381 157.464 84.3381 157.265C83.94 156.17 74.9155 135.666 56.6343 132.381C56.6343 132.381 70.3701 138.585 77.5366 154.677C77.5366 154.677 64.2321 157.762 55.6058 149.999C46.9795 142.202 35.4666 127.039 35.4666 127.039C35.4666 127.039 40.012 121.598 54.9754 120.702Z" fill="#B3C948"/>
<path d="M143.296 141.041C132.513 148.307 120.735 154.345 107.297 153.449C106.667 153.416 106.203 152.885 106.368 152.222C108.99 142.235 117.251 137.557 125.645 133.111C117.583 135.865 102.088 142.666 91.77 156.833C91.77 156.833 115.127 162.142 130.489 152.918C145.884 143.728 167.35 127.504 167.35 127.504C167.35 127.504 167.184 127.371 166.819 127.106C158.259 129.959 150.296 136.296 143.296 141.041Z" fill="#7C943A"/>
<path d="M57.1652 132.613C56.944 132.525 56.7228 132.436 56.5016 132.348C60.8148 136.196 64.6966 140.908 68.9766 148.439C68.9766 148.439 65.3602 149.534 59.4545 146.946C52.7856 144.06 51.7239 142.865 45.3869 139.216C48.6715 143.064 52.3543 147.046 55.6058 149.998C64.2321 157.762 77.5366 154.677 77.5366 154.677C71.1995 140.476 59.7531 133.94 57.1652 132.613Z" fill="#7C943A"/>
<path fill-rule="evenodd" clip-rule="evenodd" d="M101.425 0.497673C101.923 0.763099 113.734 7.59781 116.09 23.4902C117.317 31.6188 115.526 37.3255 113.8 40.6765C111.876 44.4588 109.52 46.3168 109.288 46.5158C108.591 47.0135 107.795 47.2789 106.999 47.2789C106.302 47.2789 105.639 47.0799 105.008 46.7149C94.0926 39.9466 87.5896 27.9361 88.8172 16.8214C90.078 5.37487 97.2777 0.763099 97.5763 0.56403C98.1735 0.199069 98.8702 0 99.567 0C100.197 0 100.828 0.165891 101.425 0.497673ZM92.5332 17.2527C91.5047 26.6421 97.0122 37.3255 106.999 43.5298C106.999 43.5298 114.431 37.8895 112.374 24.0542C110.25 9.78757 99.567 3.74914 99.567 3.74914C99.567 3.74914 93.6281 7.4651 92.5332 17.2527Z" fill="#455218"/>
<path d="M107.19 42.9903C96.8349 36.8113 91.1239 26.1714 92.1904 16.8203C93.3257 7.07263 99.484 3.37183 99.484 3.37183C99.484 3.37183 110.562 9.38564 112.764 23.5941C114.897 37.373 107.19 42.9903 107.19 42.9903Z" fill="#B3C948"/>
<path d="M112.772 23.7239C111.695 16.7002 108.463 11.6785 105.5 8.4292C105.601 8.65895 105.635 8.92152 105.769 9.11845C108.092 12.9914 111.695 24.9711 107.352 34.3252C106.779 35.5724 104.86 28.6143 104.456 29.5661C103.817 31.1415 104.322 35.4411 103.884 35.4083C100.652 35.2442 96.5112 31.4697 94.5923 28.7127C96.9826 34.2267 101.359 39.3796 107.318 42.99C107.318 42.99 114.859 37.4104 112.772 23.7239Z" fill="#7C943A"/>
<path d="M106.959 44.676C105.364 42.7774 103.43 38.26 102.072 30.6656C101.529 27.5558 100.817 23.0711 100.545 20.1905C100.342 18.4555 100.749 17.8663 101.495 19.5358C102.615 22.0891 103.837 26.8029 105.534 31.1566C107.978 37.3762 108.079 44.3159 108.079 44.3159L106.959 44.676Z" fill="#455218"/>
<path d="M7.38562 201.464H2.42426V176.674H7.38562V186.597H17.2911V176.674H22.2524V201.464H17.2911V191.559H7.38562V201.464Z" fill="#455218"/>
<path d="M51.1562 189.173C51.1562 190.348 51.0007 191.484 50.6895 192.578C50.3898 193.662 49.9634 194.682 49.4102 195.638C48.8571 196.583 48.1886 197.448 47.405 198.231C46.6213 199.015 45.7569 199.689 44.8119 200.254C43.8669 200.807 42.847 201.233 41.7521 201.533C40.6573 201.844 39.5221 202 38.3466 202C37.1711 202 36.0359 201.844 34.9411 201.533C33.8577 201.233 32.8378 200.807 31.8813 200.254C30.9362 199.689 30.0719 199.015 29.2882 198.231C28.5045 197.448 27.8303 196.583 27.2656 195.638C26.7125 194.682 26.2803 193.662 25.9691 192.578C25.6695 191.484 25.5197 190.348 25.5197 189.173C25.5197 187.997 25.6695 186.862 25.9691 185.767C26.2803 184.673 26.7125 183.653 27.2656 182.708C27.8303 181.763 28.5045 180.898 29.2882 180.115C30.0719 179.331 30.9362 178.662 31.8813 178.109C32.8378 177.556 33.8577 177.13 34.9411 176.83C36.0359 176.519 37.1711 176.363 38.3466 176.363C39.5221 176.363 40.6573 176.519 41.7521 176.83C42.847 177.13 43.8669 177.556 44.8119 178.109C45.7569 178.662 46.6213 179.331 47.405 180.115C48.1886 180.898 48.8571 181.763 49.4102 182.708C49.9634 183.653 50.3898 184.673 50.6895 185.767C51.0007 186.862 51.1562 187.997 51.1562 189.173ZM46.2294 189.173C46.2294 188.09 46.022 187.07 45.6071 186.113C45.1922 185.145 44.6275 184.31 43.913 183.607C43.21 182.892 42.3745 182.327 41.4064 181.912C40.4498 181.498 39.4299 181.29 38.3466 181.29C37.2517 181.29 36.2261 181.498 35.2695 181.912C34.313 182.327 33.4774 182.892 32.7629 183.607C32.0484 184.31 31.4837 185.145 31.0688 186.113C30.6539 187.07 30.4464 188.09 30.4464 189.173C30.4464 190.256 30.6539 191.276 31.0688 192.233C31.4837 193.178 32.0484 194.008 32.7629 194.722C33.4774 195.437 34.313 196.001 35.2695 196.416C36.2261 196.831 37.2517 197.039 38.3466 197.039C39.4299 197.039 40.4498 196.831 41.4064 196.416C42.3745 196.001 43.21 195.437 43.913 194.722C44.6275 194.008 45.1922 193.178 45.6071 192.233C46.022 191.276 46.2294 190.256 46.2294 189.173Z" fill="#455218"/>
<path d="M59.3848 181.636V191.559H64.3462C65.0261 191.559 65.6658 191.432 66.265 191.178C66.8643 190.913 67.3887 190.556 67.8382 190.106C68.2876 189.657 68.6391 189.133 68.8927 188.533C69.1577 187.923 69.2903 187.277 69.2903 186.597C69.2903 185.917 69.1577 185.278 68.8927 184.678C68.6391 184.068 68.2876 183.537 67.8382 183.088C67.3887 182.638 66.8643 182.287 66.265 182.033C65.6658 181.768 65.0261 181.636 64.3462 181.636H59.3848ZM59.3848 201.464H54.4235V176.674H64.3462C65.2566 176.674 66.1325 176.795 66.9738 177.037C67.8151 177.268 68.5988 177.602 69.3248 178.04C70.0624 178.467 70.7309 178.985 71.3301 179.596C71.9409 180.195 72.4595 180.864 72.886 181.601C73.3239 182.339 73.6581 183.128 73.8886 183.97C74.1306 184.811 74.2516 185.687 74.2516 186.597C74.2516 187.45 74.1421 188.28 73.9232 189.086C73.7157 189.893 73.4103 190.66 73.007 191.386C72.6151 192.112 72.1311 192.78 71.5549 193.391C70.9786 194.002 70.3333 194.532 69.6187 194.981L72.3673 201.464H67.0948L64.934 196.468L59.3848 196.503V201.464Z" fill="#455218"/>
<path d="M87.4762 201.464H82.5321V181.636H75.0814V176.674H94.9096V181.636H87.4762V201.464Z" fill="#455218"/>
<path d="M102.499 201.464H97.5372V176.674H102.499V201.464Z" fill="#455218"/>
<path d="M126.977 189.069C126.977 190.21 126.827 191.311 126.527 192.371C126.239 193.42 125.824 194.405 125.283 195.327C124.741 196.238 124.096 197.073 123.347 197.834C122.598 198.583 121.762 199.228 120.84 199.77C119.918 200.312 118.927 200.732 117.867 201.032C116.818 201.32 115.723 201.464 114.582 201.464H107.114V176.674H114.582C115.723 176.674 116.818 176.824 117.867 177.124C118.927 177.412 119.918 177.827 120.84 178.369C121.762 178.91 122.598 179.561 123.347 180.322C124.096 181.071 124.741 181.907 125.283 182.829C125.824 183.739 126.239 184.724 126.527 185.785C126.827 186.833 126.977 187.928 126.977 189.069ZM122.016 189.069C122.016 188.044 121.82 187.081 121.428 186.182C121.047 185.283 120.517 184.5 119.837 183.831C119.169 183.151 118.38 182.615 117.469 182.224C116.57 181.832 115.608 181.636 114.582 181.636H112.11V196.503H114.582C115.608 196.503 116.57 196.312 117.469 195.932C118.38 195.54 119.169 195.01 119.837 194.342C120.517 193.662 121.047 192.872 121.428 191.973C121.82 191.063 122.016 190.095 122.016 189.069Z" fill="#B3C948"/>
<path d="M154.567 189.173C154.567 190.348 154.411 191.484 154.1 192.578C153.801 193.662 153.374 194.682 152.821 195.638C152.268 196.583 151.599 197.448 150.816 198.231C150.032 199.015 149.168 199.689 148.223 200.254C147.278 200.807 146.258 201.233 145.163 201.533C144.068 201.844 142.933 202 141.757 202C140.582 202 139.447 201.844 138.352 201.533C137.268 201.233 136.248 200.807 135.292 200.254C134.347 199.689 133.483 199.015 132.699 198.231C131.915 197.448 131.241 196.583 130.676 195.638C130.123 194.682 129.691 193.662 129.38 192.578C129.08 191.484 128.93 190.348 128.93 189.173C128.93 187.997 129.08 186.862 129.38 185.767C129.691 184.673 130.123 183.653 130.676 182.708C131.241 181.763 131.915 180.898 132.699 180.115C133.483 179.331 134.347 178.662 135.292 178.109C136.248 177.556 137.268 177.13 138.352 176.83C139.447 176.519 140.582 176.363 141.757 176.363C142.933 176.363 144.068 176.519 145.163 176.83C146.258 177.13 147.278 177.556 148.223 178.109C149.168 178.662 150.032 179.331 150.816 180.115C151.599 180.898 152.268 181.763 152.821 182.708C153.374 183.653 153.801 184.673 154.1 185.767C154.411 186.862 154.567 187.997 154.567 189.173ZM149.64 189.173C149.64 188.09 149.433 187.07 149.018 186.113C148.603 185.145 148.038 184.31 147.324 183.607C146.621 182.892 145.785 182.327 144.817 181.912C143.861 181.498 142.841 181.29 141.757 181.29C140.662 181.29 139.637 181.498 138.68 181.912C137.724 182.327 136.888 182.892 136.174 183.607C135.459 184.31 134.894 185.145 134.479 186.113C134.065 187.07 133.857 188.09 133.857 189.173C133.857 190.256 134.065 191.276 134.479 192.233C134.894 193.178 135.459 194.008 136.174 194.722C136.888 195.437 137.724 196.001 138.68 196.416C139.637 196.831 140.662 197.039 141.757 197.039C142.841 197.039 143.861 196.831 144.817 196.416C145.785 196.001 146.621 195.437 147.324 194.722C148.038 194.008 148.603 193.178 149.018 192.233C149.433 191.276 149.64 190.256 149.64 189.173Z" fill="#B3C948"/>
<path d="M167.446 201.464H162.502V181.636H155.051V176.674H174.879V181.636H167.446V201.464Z" fill="#B3C948"/>
</svg>
